<?xml version="1.0" encoding="UTF-8"?>
<svg width="836px" height="281px" viewBox="0 0 836 281" version="1.1" xmlns="http://www.w3.org/2000/svg" xmlns:xlink="http://www.w3.org/1999/xlink">
    <!-- Generator: Sketch 51.1 (57501) - http://www.bohemiancoding.com/sketch -->
    <title>Illustration</title>
    <desc>Created with Sketch.</desc>
    <defs></defs>
    <g id="Main" stroke="none" stroke-width="1" fill="none" fill-rule="evenodd">
        <g id="API-Catalog---Mineral---subtle-search" transform="translate(-493.000000, -50.000000)">
            <g id="Illustration" transform="translate(493.000000, 51.000000)">
                <g id="Group-3" transform="translate(394.000000, 137.000000)" stroke-width="2">
                    <circle id="Oval" stroke="#C8D1E0" cx="20" cy="20" r="19"></circle>
                    <path d="M22.6389588,10 C22.6389588,10 21.0926392,13.2895732 18,19.8687195 L22.6389588,19.8687195 L18,30.0187191" id="Path-2" stroke="#AFBACC" stroke-linecap="round" stroke-linejoin="round"></path>
                </g>
                <polyline id="Path-3" stroke="#C8D1E0" stroke-width="2" stroke-linejoin="round" points="836 212.953174 717.098234 212.953174 646.137977 157 434 157"></polyline>
                <path d="M485.348712,204.911557 C485.348712,204.911557 496.230768,194.029501 517.99488,172.265389 L517.99488,156.589374" id="Path-67" stroke="#C8D1E0" stroke-width="2"></path>
                <circle id="Oval-10" stroke="#AFBACC" stroke-width="2" cx="629" cy="191" r="11"></circle>
                <polyline id="Path-64" stroke="#C8D1E0" stroke-width="2" stroke-linecap="round" stroke-linejoin="round" points="647.099787 155 629 173.099787 629 179.092064"></polyline>
                <path d="M489,157.007569 L489,90.942442" id="Path-5" stroke="#C8D1E0" stroke-width="2"></path>
                <circle id="Oval-3" stroke="#C8D1E0" stroke-width="2" cx="489" cy="87" r="4"></circle>
                <circle id="Oval-3" stroke="#C8D1E0" stroke-width="2" cx="574" cy="112" r="4"></circle>
                <circle id="Oval-3" stroke="#C8D1E0" stroke-width="2" cx="597" cy="112" r="4"></circle>
                <circle id="Oval-3" stroke="#C8D1E0" stroke-width="2" cx="740" cy="142.59898" r="4"></circle>
                <circle id="Oval-3" stroke="#C8D1E0" stroke-width="2" cx="711" cy="115" r="4"></circle>
                <circle id="Oval-3" stroke="#C8D1E0" stroke-width="2" cx="691" cy="137.59898" r="4"></circle>
                <circle id="Oval-3" stroke="#C8D1E0" stroke-width="2" cx="792" cy="147.59898" r="4"></circle>
                <circle id="Oval-3" stroke="#C8D1E0" stroke-width="2" cx="531" cy="192" r="4"></circle>
                <circle id="Oval-3" stroke="#C8D1E0" stroke-width="2" cx="580.5" cy="216" r="4"></circle>
                <circle id="Oval-3" stroke="#C8D1E0" stroke-width="2" cx="659" cy="272" r="4"></circle>
                <circle id="Oval-3" stroke="#C8D1E0" stroke-width="2" cx="463" cy="87" r="4"></circle>
                <circle id="Oval-3" stroke="#C8D1E0" stroke-width="2" cx="515" cy="87" r="4"></circle>
                <circle id="Oval-3" stroke="#C8D1E0" stroke-width="2" cx="312.5" cy="28.5" r="3.5"></circle>
                <circle id="Oval-3" stroke="#C8D1E0" stroke-width="2" cx="186.5" cy="86.5" r="3.5"></circle>
                <circle id="Oval-3" fill="#AFBACC" cx="340.5" cy="28.5" r="4.5"></circle>
                <circle id="Oval-3" stroke="#C8D1E0" stroke-width="2" cx="153.5" cy="252.5" r="3.5"></circle>
                <circle id="Oval-3-Copy" stroke="#C8D1E0" stroke-width="2" cx="139" cy="155" r="4"></circle>
                <circle id="Oval-3-Copy" stroke="#C8D1E0" stroke-width="2" cx="165" cy="182" r="4"></circle>
                <circle id="Oval-3" stroke="#C8D1E0" stroke-width="2" cx="197.5" cy="275.5" r="3.5"></circle>
                <circle id="Oval-3" stroke="#C8D1E0" stroke-width="2" cx="342" cy="101" r="4"></circle>
                <circle id="Oval-3" stroke="#C8D1E0" stroke-width="2" cx="372" cy="115" r="4"></circle>
                <circle id="Oval-3" fill="#AFBACC" cx="403.5" cy="99.5" r="4.5"></circle>
                <polyline id="Path-6" stroke="#C8D1E0" stroke-width="2" points="489.269655 142.374053 463 115.630826 463 91"></polyline>
                <polyline id="Path-4" stroke="#C8D1E0" stroke-width="2" stroke-linejoin="round" points="679.716661 185 626.526746 238.189914 553 238.189914"></polyline>
                <polyline id="Path-8" stroke="#C8D1E0" stroke-width="2" stroke-linejoin="round" points="616.370085 157 580.555627 192 535 192"></polyline>
                <path d="M580.5,191.993424 L580.5,211.006409" id="Line" stroke="#C8D1E0" stroke-width="2" stroke-linecap="square"></path>
                <polyline id="Path-9" stroke="#C8D1E0" stroke-width="2" stroke-linecap="round" stroke-linejoin="round" points="549 156.841457 549 84.3355006 587.223237 46.5989804 836.862494 46.5989804"></polyline>
                <rect id="Rectangle-3" stroke="#AFBACC" stroke-width="2" x="622" y="76.5989804" width="55" height="26" rx="3"></rect>
                <polyline id="Path-54" stroke="#C8D1E0" stroke-width="2" stroke-linecap="round" stroke-linejoin="round" points="648.267706 102.737807 648.267706 153.439866 644.998892 156.70868"></polyline>
                <circle id="Oval-5" fill="#AFBACC" cx="629.5" cy="85.0989804" r="1.5"></circle>
                <circle id="Oval-5" fill="#AFBACC" cx="629.5" cy="94.0989804" r="1.5"></circle>
                <circle id="Oval-5" fill="#AFBACC" cx="637.5" cy="85.0989804" r="1.5"></circle>
                <circle id="Oval-5" fill="#AFBACC" cx="637.5" cy="94.0989804" r="1.5"></circle>
                <circle id="Oval-5" fill="#AFBACC" cx="645.5" cy="85.0989804" r="1.5"></circle>
                <circle id="Oval-5" fill="#AFBACC" cx="645.5" cy="94.0989804" r="1.5"></circle>
                <circle id="Oval-5" fill="#AFBACC" cx="653.5" cy="85.0989804" r="1.5"></circle>
                <circle id="Oval-5" fill="#AFBACC" cx="653.5" cy="94.0989804" r="1.5"></circle>
                <circle id="Oval-5" fill="#AFBACC" cx="661.5" cy="85.0989804" r="1.5"></circle>
                <circle id="Oval-5" fill="#AFBACC" cx="661.5" cy="94.0989804" r="1.5"></circle>
                <circle id="Oval-5" fill="#AFBACC" cx="669.5" cy="85.0989804" r="1.5"></circle>
                <circle id="Oval-5" fill="#AFBACC" cx="669.5" cy="94.0989804" r="1.5"></circle>
                <polyline id="Path-11" stroke="#C8D1E0" stroke-width="2" stroke-linejoin="round" points="768.35539 47.5989804 768.35539 113.867263 742 140.222653"></polyline>
                <polyline id="Path-55" stroke="#C8D1E0" stroke-width="2" points="768.549757 84.038735 738.271361 115.038735 715.181874 115.038735"></polyline>
                <polyline id="Path-12" stroke="#C8D1E0" stroke-width="2" stroke-linejoin="round" points="768 72.5989804 792 99.4067489 792 143.59898"></polyline>
                <path d="M574,156.794388 L574,116" id="Path-13" stroke="#C8D1E0" stroke-width="2"></path>
                <path d="M597,156.794388 L597,116" id="Path-13-Copy" stroke="#C8D1E0" stroke-width="2"></path>
                <polyline id="Path-10" stroke="#C8D1E0" stroke-width="2" stroke-linejoin="round" points="730.389267 46.5989804 730.389267 89.2577212 676 89.2577212"></polyline>
                <polyline id="Path-14" stroke="#C8D1E0" stroke-width="2" points="697.580307 197.449762 718.052841 176.977228 741.105902 176.977228"></polyline>
                <circle id="Oval-6" fill="#AFBACC" cx="749" cy="177" r="4"></circle>
                <rect id="Rectangle-4" stroke="#C8D1E0" stroke-width="2" x="742" y="170" width="29" height="14" rx="7"></rect>
                <path d="" id="Path-16" stroke="#979797"></path>
                <path d="M560.732282,73.3052283 L535.236139,47.8090851 C534.67353,47.2464759 533.910468,46.9304054 533.114819,46.9304054 L302.195144,46.9304054" id="Path-17" stroke="#C8D1E0" stroke-width="2"></path>
                <rect id="Rectangle-5" stroke="#C8D1E0" stroke-width="2" x="252" y="40" width="51" height="14" rx="3"></rect>
                <polyline id="Path-18" stroke="#C8D1E0" stroke-width="2" points="373 47 342 77.7567675 342 97.2947392"></polyline>
                <polyline id="Path-18" stroke="#C8D1E0" stroke-width="2" points="403.671178 47 372 77.7567675 372 111.902662"></polyline>
                <circle id="Oval-3" stroke="#C8D1E0" stroke-width="2" cx="433" cy="115" r="4"></circle>
                <polyline id="Path-18" stroke="#C8D1E0" stroke-width="2" points="464.671178 47 433 77.7567675 433 111.902662"></polyline>
                <polyline id="Path-18" stroke="#C8D1E0" stroke-width="2" points="433.756767 47 403.5 77.7567675 403.5 96.3474508"></polyline>
                <path d="M251.946056,46.0290455 L161.402971,46.0290455 C159.746117,46.0290455 158.402971,47.3721912 158.402971,49.0290455 L158.402971,154 C158.402971,155.656854 159.746117,157 161.402971,157 L250.280865,157 L250.280865,178.474827 M256.833035,178.160841 L256.833035,157 L394.438192,157" id="Path-19" stroke="#C8D1E0" stroke-width="2"></path>
                <polyline id="Path-66" stroke="#C8D1E0" stroke-width="2" stroke-linecap="round" stroke-linejoin="round" points="306.307426 156.081642 306.307426 143.737754 373.295218 143.737754 373.295218 156.417278"></polyline>
                <rect id="Rectangle-12" stroke="#C8D1E0" stroke-width="2" x="66" y="182" width="53" height="32" rx="3"></rect>
                <rect id="Rectangle-13" fill="#AFBACC" x="71" y="187" width="22" height="22" rx="2"></rect>
                <path d="M98.4411765,188 L112.58637,188" id="Line-6" stroke="#C8D1E0" stroke-width="2" stroke-linecap="round" stroke-linejoin="bevel"></path>
                <path d="M98.4411765,193 L112.58637,193" id="Line-6" stroke="#C8D1E0" stroke-width="2" stroke-linecap="round" stroke-linejoin="bevel"></path>
                <path d="M98.4411765,198 L112.58637,198" id="Line-6" stroke="#C8D1E0" stroke-width="2" stroke-linecap="round" stroke-linejoin="bevel"></path>
                <path d="M98.4411765,203 L112.58637,203" id="Line-6" stroke="#C8D1E0" stroke-width="2" stroke-linecap="round" stroke-linejoin="bevel"></path>
                <path d="M98.4411765,208 L112.58637,208" id="Line-6" stroke="#C8D1E0" stroke-width="2" stroke-linecap="round" stroke-linejoin="bevel"></path>
                <polyline id="Path-57" stroke="#C8D1E0" stroke-width="2" stroke-linecap="round" stroke-linejoin="round" points="156.599191 70.8171025 96.845912 70.8171025 81.0288095 55 53 55"></polyline>
                <polyline id="Path-59" stroke="#C8D1E0" stroke-width="2" stroke-linecap="round" stroke-linejoin="round" points="116.885207 71 100.799621 87.085586 61 87.085586"></polyline>
                <path d="M87,126.96505 L87,109" id="Path-61" stroke="#C8D1E0" stroke-width="2" stroke-linecap="round" stroke-linejoin="round"></path>
                <circle id="Oval-3-Copy" stroke="#C8D1E0" stroke-width="2" cx="87" cy="105" r="4"></circle>
                <circle id="Oval-3-Copy" stroke="#C8D1E0" stroke-width="2" cx="55.5" cy="87.5" r="4.5"></circle>
                <circle id="Oval-3-Copy" stroke="#C8D1E0" stroke-width="2" cx="5.5" cy="67.5" r="4.5"></circle>
                <circle id="Oval-3-Copy" fill="#AFBACC" cx="49" cy="55" r="5"></circle>
                <path d="" id="Path-62" stroke="#979797"></path>
                <path d="M92.5151033,67 L10.6062726,67" id="Path-58" stroke="#C8D1E0" stroke-width="2" stroke-linecap="round" stroke-linejoin="round"></path>
                <polyline id="Path-60" stroke="#C8D1E0" stroke-width="2" stroke-linecap="round" stroke-linejoin="round" points="134.944966 71 134.944966 103.889252 116.735677 122.272797 87 122.272797 87 180.808271"></polyline>
                <polyline id="Path-63" stroke="#C8D1E0" stroke-width="2" stroke-linecap="round" stroke-linejoin="round" points="157.824848 129 139.337163 129 98 170.337163 98 180.932191"></polyline>
                <rect id="Rectangle-6" stroke="#C8D1E0" stroke-width="2" x="218" y="179" width="72" height="85" rx="3"></rect>
                <rect id="Rectangle-7" stroke="#C8D1E0" stroke-width="2" x="230" y="191" width="8" height="61" rx="4"></rect>
                <rect id="Rectangle-7" stroke="#C8D1E0" stroke-width="2" x="250" y="191" width="8" height="61" rx="4"></rect>
                <rect id="Rectangle-7" stroke="#C8D1E0" stroke-width="2" x="270" y="191" width="8" height="61" rx="4"></rect>
                <g id="Group-4" transform="translate(227.000000, 202.000000)">
                    <rect id="Rectangle-8" fill="#C8D1E0" x="0" y="0" width="14" height="20" rx="3"></rect>
                    <rect id="Rectangle-9" fill="#FFFFFF" x="3" y="4" width="8" height="2" rx="1"></rect>
                    <rect id="Rectangle-9" fill="#FFFFFF" x="3" y="9" width="8" height="2" rx="1"></rect>
                    <rect id="Rectangle-9" fill="#FFFFFF" x="3" y="14" width="8" height="2" rx="1"></rect>
                </g>
                <g id="Group-5" transform="translate(227.000000, 202.000000)">
                    <rect id="Rectangle-8" fill="#AFBACC" x="0" y="0" width="14" height="20" rx="3"></rect>
                    <rect id="Rectangle-9" fill="#FFFFFF" x="3" y="4" width="8" height="2" rx="1"></rect>
                    <rect id="Rectangle-9" fill="#FFFFFF" x="3" y="9" width="8" height="2" rx="1"></rect>
                    <rect id="Rectangle-9" fill="#FFFFFF" x="3" y="14" width="8" height="2" rx="1"></rect>
                </g>
                <g id="Group-5" transform="translate(247.000000, 216.000000)">
                    <rect id="Rectangle-8" fill="#AFBACC" x="0" y="0" width="14" height="20" rx="3"></rect>
                    <rect id="Rectangle-9" fill="#FFFFFF" x="3" y="4" width="8" height="2" rx="1"></rect>
                    <rect id="Rectangle-9" fill="#FFFFFF" x="3" y="9" width="8" height="2" rx="1"></rect>
                    <rect id="Rectangle-9" fill="#FFFFFF" x="3" y="14" width="8" height="2" rx="1"></rect>
                </g>
                <g id="Group-5" transform="translate(267.000000, 199.000000)">
                    <rect id="Rectangle-8" fill="#AFBACC" x="0" y="0" width="14" height="20" rx="3"></rect>
                    <rect id="Rectangle-9" fill="#FFFFFF" x="3" y="4" width="8" height="2" rx="1"></rect>
                    <rect id="Rectangle-9" fill="#FFFFFF" x="3" y="9" width="8" height="2" rx="1"></rect>
                    <rect id="Rectangle-9" fill="#FFFFFF" x="3" y="14" width="8" height="2" rx="1"></rect>
                </g>
                <polyline id="Path-21" stroke="#C8D1E0" stroke-width="2" points="201.212568 156.819713 201.212568 138.290669 220 120"></polyline>
                <polyline id="Path-22" stroke="#C8D1E0" stroke-width="2" points="465 47.2735977 465 21.1838843 481.183884 5"></polyline>
                <path d="M688,5 L729.988927,46.9889269" id="Path-23" stroke="#C8D1E0" stroke-width="2"></path>
                <path d="M733,12 L767.988927,46.9889269" id="Path-23" stroke="#C8D1E0" stroke-width="2"></path>
                <path d="M544,5 L585.988927,46.9889269" id="Path-23-Copy" stroke="#C8D1E0" stroke-width="2"></path>
                <polyline id="Path-31" stroke="#C8D1E0" stroke-width="2" stroke-linecap="round" stroke-linejoin="round" points="210.414607 129.854952 222.734105 142.209328 275.832113 142.209328 286.9559 132.141962 305.3529 132.141962 305.3529 113.977262"></polyline>
                <path d="M305.239679,100.998868 L305.239679,81 L286.793702,81 L286.793702,97.940724 M277,100.445152 L286.793702,110.238853 L286.793702,131.449328" id="Path-32" stroke="#C8D1E0" stroke-width="2" stroke-linecap="round" stroke-linejoin="round"></path>
                <polyline id="Path-34" stroke="#C8D1E0" stroke-width="2" points="189.603415 157.394846 189.603415 215.796327 155.603415 250.018519"></polyline>
                <polyline id="Path-35" stroke="#C8D1E0" stroke-width="2" points="175.701934 230.998855 197.8131 253.349618 197.8131 272.998855"></polyline>
                <path d="M658.978376,205.999996 L658.978376,267.512766" id="Path-7" stroke="#C8D1E0" stroke-width="2" stroke-linejoin="round"></path>
                <path d="M469.990686,157.23427 L440.883086,186.34187 L420.859002,186.34187 M426.503593,200.721363 L392.116338,235.108618 L376.070645,235.108618" id="Path-24" stroke="#C8D1E0" stroke-width="2" stroke-linecap="round" stroke-linejoin="round"></path>
                <path d="M158.997729,108.421406 L198.093705,108.421406" id="Path-30" stroke="#C8D1E0" stroke-width="2" stroke-linecap="round" stroke-linejoin="round"></path>
                <polyline id="Path-33" stroke="#C8D1E0" stroke-width="2" points="295.429595 81.4475335 295.429595 70 269.686452 70 241 100.078158"></polyline>
                <path d="M243.717928,120 L243.934322,119.985757 C247.336709,119.76181 250,116.92834 250,113.5 C250,110.067997 247.331196,107.23269 243.924467,107.013602 L242.946411,106.950703 L242.989617,105.971579 C242.996532,105.814878 243,105.657662 243,105.5 C243,99.7010101 238.29899,95 232.5,95 C232.03813,95 231.580234,95.0297596 231.128133,95.0886973 L230.664913,95.1490845 L230.321334,94.8325833 C227.661942,92.3827832 224.190336,91 220.5,91 C214.034137,91 208.402413,95.2700355 206.594537,101.376185 L206.411093,101.995772 L205.770849,102.083115 C201.342149,102.687279 198,106.486781 198,111 C198,115.970563 202.029437,120 207,120 L243.717928,120 Z" id="Combined-Shape" stroke="#AFBACC" stroke-width="2"></path>
                <circle id="Oval-7" stroke="#C8D1E0" stroke-width="2" cx="364" cy="236" r="12"></circle>
                <circle id="Oval-7" fill="#AFBACC" cx="364" cy="236" r="8"></circle>
                <polyline id="Path-41" stroke="#C8D1E0" stroke-width="2" points="453.280703 174.153988 468.608885 189.48217 428.846706 229.244349 413.923283 214.320925"></polyline>
                <path d="M312.5,0.5 L337.5,25.5" id="Line-4" stroke="#C8D1E0" stroke-width="2" stroke-linecap="square"></path>
                <path d="M287.5,2.5 L310.049945,25.0499446" id="Line-5" stroke="#C8D1E0" stroke-width="2" stroke-linecap="square"></path>
                <circle id="Oval-3" stroke="#C8D1E0" stroke-width="2" cx="627.5" cy="28.5" r="3.5"></circle>
                <circle id="Oval-3" stroke="#C8D1E0" stroke-width="2" cx="655.5" cy="28.5" r="3.5"></circle>
                <path d="M627.5,0.5 L652.5,25.5" id="Line-4" stroke="#C8D1E0" stroke-width="2" stroke-linecap="square"></path>
                <path d="M602.5,2.5 L625.049945,25.0499446" id="Line-5" stroke="#C8D1E0" stroke-width="2" stroke-linecap="square"></path>
                <polyline id="Path-43" stroke="#C8D1E0" stroke-width="2" points="489 141.277442 514.712819 116.138721 514.712819 91"></polyline>
                <polyline id="Path-44" stroke="#C8D1E0" stroke-width="2" points="171.884202 235.024592 139 212.108527 139 159.024592"></polyline>
                <circle id="Oval-3" fill="#AFBACC" cx="484.5" cy="205.5" r="4.5"></circle>
                <circle id="Oval-3" stroke="#C8D1E0" stroke-width="2" cx="550.5" cy="238.5" r="3.5"></circle>
                <path d="M805,212 L805,189" id="Path-51" stroke="#C8D1E0" stroke-width="2"></path>
                <circle id="Oval-8" stroke="#C8D1E0" stroke-width="2" cx="805" cy="183" r="6"></circle>
                <circle id="Oval-9" fill="#AFBACC" cx="420.5" cy="186.5" r="2.5"></circle>
                <circle id="Oval-9" fill="#AFBACC" cx="276.5" cy="100.5" r="2.5"></circle>
                <polyline id="Path-42" stroke="#C8D1E0" stroke-width="2" points="159.268406 70.6941668 186.52494 70.6941668 186.52494 82.6248969"></polyline>
                <path d="M660.661679,168.20225 L688.824289,140.03964" id="Path-49" stroke="#C8D1E0" stroke-width="2"></path>
                <polyline id="Path-53" stroke="#C8D1E0" stroke-width="2" points="153.799662 221.944987 165 211.103557 165 186.589329"></polyline>
                <rect id="Rectangle-11" fill="#AFBACC" x="303" y="100" width="5" height="15" rx="2.5"></rect>
                <polyline id="Path-56" stroke="#C8D1E0" stroke-width="2" points="785.694987 91.8987148 805.15259 74.8104299 836.862494 74.8104299"></polyline>
            </g>
        </g>
    </g>
</svg>