<svg id="CA_A_Broadcom_Company" data-name="CA A Broadcom Company" xmlns="http://www.w3.org/2000/svg" width="7in"
     height="2.31in" viewBox="0 0 504 166.32">
    <defs>
        <style>
            .cls-1 {
            fill: #231f20;
            }
        </style>
    </defs>
    <title>CA-Broadcom_Horizontal_black_CMYK</title>
    <g>
        <g>
            <path class="cls-1"
                  d="M267.33,72.14h3.5l15.08,34.72h-4L278,97.75H260l-3.92,9.11h-3.83Zm9.22,22.12L269,76.67l-7.56,17.59Z"
                  transform="translate(-36 -36)"/>
            <path class="cls-1"
                  d="M305.26,72.39h14.85c3.78,0,6.76,1.08,8.65,3A8,8,0,0,1,331,81.15v.1a8.23,8.23,0,0,1-4.73,7.69c3.88,1.37,6.57,3.69,6.57,8.37v.1c0,6.15-4.86,9.45-12.24,9.45H305.26Zm19.91,9.75c0-2.71-2.08-4.38-5.82-4.38H311v9.16h7.94c3.74,0,6.25-1.53,6.25-4.68Zm-5,9.9H311v9.46h9.65c3.92,0,6.38-1.63,6.38-4.73v-.1C327,93.76,324.79,92,320.2,92Z"
                  transform="translate(-36 -36)"/>
            <path class="cls-1"
                  d="M338.22,80.86H344v5.86c1.56-3.89,4.44-6.55,8.84-6.35v6.3h-.33c-5,0-8.51,3.4-8.51,10.29v9.9h-5.77Z"
                  transform="translate(-36 -36)"/>
            <path class="cls-1"
                  d="M355.1,94v-.1a13.32,13.32,0,0,1,13.34-13.59,13.19,13.19,0,0,1,13.28,13.49v.1a13.32,13.32,0,0,1-13.38,13.55A13.18,13.18,0,0,1,355.1,94ZM376,94v-.1c0-4.58-3.17-8.37-7.66-8.37s-7.51,3.74-7.51,8.27v.1c0,4.53,3.16,8.32,7.61,8.32C373.07,102.23,376,98.49,376,94Z"
                  transform="translate(-36 -36)"/>
            <path class="cls-1"
                  d="M385.37,99.38v-.1c0-5.62,4.26-8.37,10.35-8.37A20.15,20.15,0,0,1,402.44,92v-.64c0-3.69-2.18-5.66-6.2-5.66a16.83,16.83,0,0,0-7.13,1.62l-1.56-4.68A20.9,20.9,0,0,1,397,80.51c3.74,0,6.53,1,8.27,2.91s2.7,4.63,2.7,8v15.41h-5.58v-3.25a10,10,0,0,1-8.13,3.8C389.58,107.41,385.37,104.6,385.37,99.38Zm17.16-1.87V95.73a15.28,15.28,0,0,0-5.67-1c-3.69,0-5.86,1.62-5.86,4.33v.1c0,2.51,2.12,3.94,4.87,3.94C399.65,103.07,402.53,100.81,402.53,97.51Z"
                  transform="translate(-36 -36)"/>
            <path class="cls-1"
                  d="M413.08,93.91v-.1c0-8.62,5.63-13.49,11.58-13.49a10.1,10.1,0,0,1,8.52,4.58v-14h5.72v36h-5.72v-4.33c-1.85,2.71-4.45,4.88-8.52,4.88C418.8,107.41,413.08,102.53,413.08,93.91Zm20.19,0v-.1c0-5-3.4-8.32-7.23-8.32s-7.19,3.2-7.19,8.32v.1c0,5,3.31,8.32,7.19,8.32S433.27,98.89,433.27,93.91Z"
                  transform="translate(-36 -36)"/>
            <path class="cls-1"
                  d="M444.25,94v-.1c0-7.39,5.48-13.59,13-13.59a12.37,12.37,0,0,1,10,4.48l-3.59,4c-1.75-1.87-3.59-3.25-6.43-3.25-4.16,0-7.23,3.74-7.23,8.27v.1c0,4.63,3.07,8.32,7.47,8.32,2.69,0,4.63-1.28,6.47-3.2l3.46,3.55a12.45,12.45,0,0,1-10.22,4.88C449.73,107.46,444.25,101.4,444.25,94Z"
                  transform="translate(-36 -36)"/>
            <path class="cls-1"
                  d="M470.07,94v-.1a13.31,13.31,0,1,1,26.62-.1v.1a13.33,13.33,0,0,1-13.38,13.55A13.18,13.18,0,0,1,470.07,94ZM491,94v-.1c0-4.58-3.16-8.37-7.65-8.37s-7.52,3.74-7.52,8.27v.1c0,4.53,3.16,8.32,7.61,8.32C488,102.23,491,98.49,491,94Z"
                  transform="translate(-36 -36)"/>
            <path class="cls-1"
                  d="M502,80.86h5.77V84.8c1.6-2.32,3.78-4.48,7.61-4.48a7.89,7.89,0,0,1,7.47,4.58,9.92,9.92,0,0,1,8.41-4.58c5.44,0,8.75,3.59,8.75,10v16.59h-5.72V92.09c0-4.14-1.84-6.36-5.06-6.36s-5.34,2.27-5.34,6.46v14.67h-5.72V92c0-4-1.89-6.31-5.06-6.31s-5.34,2.47-5.34,6.46v14.67H502Z"
                  transform="translate(-36 -36)"/>
            <path class="cls-1"
                  d="M253.62,133.2v-.1c0-9.75,7-17.83,16.74-17.83,6,0,9.59,2.22,12.9,5.47l-2.55,2.86c-2.79-2.76-5.91-4.73-10.4-4.73-7.33,0-12.81,6.2-12.81,14.13v.1c0,8,5.53,14.24,12.81,14.24,4.54,0,7.52-1.82,10.68-5l2.46,2.51c-3.45,3.65-7.23,6.06-13.24,6.06C260.66,150.93,253.62,143.1,253.62,133.2Z"
                  transform="translate(-36 -36)"/>
            <path class="cls-1"
                  d="M287.1,137.73v-.1c0-7.19,5.39-13.29,12.77-13.29s12.71,6,12.71,13.2v.09c0,7.19-5.43,13.3-12.81,13.3S287.1,144.92,287.1,137.73Zm21.75,0v-.1c0-5.46-3.92-9.95-9.08-9.95s-8.93,4.49-8.93,9.86v.09c0,5.47,3.87,9.9,9,9.9S308.85,143.1,308.85,137.73Z"
                  transform="translate(-36 -36)"/>
            <path class="cls-1"
                  d="M318.69,124.88h3.64v4.28c1.61-2.51,3.78-4.82,7.9-4.82a8.29,8.29,0,0,1,7.85,5.07c1.75-2.81,4.35-5.07,8.6-5.07,5.63,0,9.08,3.94,9.08,10.24v15.76h-3.64V135.47c0-4.93-2.37-7.69-6.34-7.69-3.69,0-6.76,2.86-6.76,7.88v14.68h-3.59v-15c0-4.78-2.41-7.59-6.29-7.59s-6.81,3.35-6.81,8v14.53h-3.64Z"
                  transform="translate(-36 -36)"/>
            <path class="cls-1"
                  d="M363.05,124.88h3.64V130c2-3,4.87-5.66,9.36-5.66,5.86,0,11.68,4.82,11.68,13.2v.09c0,8.33-5.77,13.25-11.68,13.25-4.54,0-7.47-2.56-9.36-5.41v12.75h-3.64ZM384,137.68v-.09c0-6-4-9.86-8.6-9.86s-8.84,4-8.84,9.81v.09c0,5.91,4.3,9.85,8.84,9.85C380.12,147.48,384,143.84,384,137.68Z"
                  transform="translate(-36 -36)"/>
            <path class="cls-1"
                  d="M392.13,143v-.09c0-5.37,4.26-8.23,10.45-8.23a25.05,25.05,0,0,1,7.52,1.08v-.88c0-4.58-2.7-7-7.28-7a16.53,16.53,0,0,0-7.43,1.87l-1.08-3.1a19.51,19.51,0,0,1,8.89-2.12c3.45,0,6.1.94,7.89,2.81,1.66,1.72,2.51,4.19,2.51,7.44v15.56h-3.5V146.5a10.58,10.58,0,0,1-8.84,4.38C396.72,150.88,392.13,148.17,392.13,143Zm18-2v-2.46a24.67,24.67,0,0,0-7.19-1.08c-4.59,0-7.14,2.07-7.14,5.27v.1c0,3.2,2.84,5.07,6.15,5.07C406.46,147.88,410.15,145,410.15,141Z"
                  transform="translate(-36 -36)"/>
            <path class="cls-1"
                  d="M420.89,124.88h3.64v4.43a9.18,9.18,0,0,1,8.36-5c5.91,0,9.37,4.13,9.37,10.19v15.81h-3.65V135.47c0-4.73-2.45-7.69-6.76-7.69s-7.32,3.21-7.32,8v14.58h-3.64Z"
                  transform="translate(-36 -36)"/>
            <path class="cls-1"
                  d="M467.13,124.88H471l-10.26,26.3c-2.08,5.27-4.45,7.19-8.13,7.19a10.68,10.68,0,0,1-5.2-1.28l1.22-3a7.42,7.42,0,0,0,3.83.93c2.18,0,3.55-1.18,5-4.78l-11.11-25.36h4l8.89,21.23Z"
                  transform="translate(-36 -36)"/>
        </g>
        <path class="cls-1"
              d="M199.67,175.85h-4.58v19.39h4.58V175.85Zm0-7.91h-4.58v4.33h4.58v-4.33ZM178.4,197.1c0-.82.76-2.24,3.26-2.24,4.45,0,5.82,1.34,5.82,2.24,0,.67-1,2.16-4,2.16-3.85,0-5.12-.68-5.12-2.16m.78-15a3.19,3.19,0,0,1,3.33-3.2,3.21,3.21,0,0,1,0,6.42,3.2,3.2,0,0,1-3.33-3.22m-5,15.58c0,3.07,3.4,4.63,8.58,4.63,6.13,0,8.92-3,8.92-5.74,0-7.76-12.66-3.51-12.66-6.64,0-1.12,1.59-1.19,3.58-1.19,4.8,0,7.26-2.62,7.26-6.26a5.61,5.61,0,0,0-1-3.44,6.11,6.11,0,0,1,3-.45v-3.13c-2.19-.08-3.62.53-4.52,1.72a7.71,7.71,0,0,0-4.72-1.72c-5,0-7.59,3.36-7.59,6.76,0,2.36,1.26,3.84,2.84,5.13-.85.26-3,1.68-3,3.54,0,2.1,2,2.58,2.84,3.14v.08a3.39,3.39,0,0,0-3.46,3.57m-13.47-12.14c0-4.33,1.22-6.35,3.77-6.35s3.78,2,3.78,6.35-1.22,6.33-3.78,6.33-3.77-2-3.77-6.33m-4.58,0c0,6.14,3.13,10.06,8.35,10.06s8.36-3.92,8.36-10.06-3.14-10.08-8.36-10.08-8.35,3.92-8.35,10.08m-3.75-17.23h-4.57v26.92h4.57V168.32ZM132,185.55c0-4.33,1.22-6.35,3.77-6.35s3.77,2,3.77,6.35-1.21,6.33-3.77,6.33-3.77-2-3.77-6.33m-4.58,0c0,6.14,3.13,10.06,8.35,10.06s8.37-3.92,8.37-10.06-3.14-10.08-8.37-10.08-8.35,3.92-8.35,10.08m-14.88-9.7h-4.22v19.39h4.6v-14a5.81,5.81,0,0,1,4.28-2.05c1.56,0,2.38.83,2.38,3.45v12.59h4.58V182c0-4-1.85-6.49-5.69-6.49-2.27,0-4.22,1.28-5.93,2.46ZM92.3,168.32H87.71v26.92H92.3v-14a5.87,5.87,0,0,1,4.29-2.05c1.55,0,2.37.83,2.37,3.45v12.59h4.59V182c0-4-1.86-6.49-5.72-6.49a8.88,8.88,0,0,0-5.53,2.46Zm-24,17.23c0,6.14,3.13,10.06,8.33,10.06,3.53,0,5.86-1.38,7.71-4.84l-3.48-2c-.92,1.69-2.06,3.08-4.06,3.08-2.72,0-3.94-2-3.94-6.33s1.22-6.35,3.77-6.35c2.24,0,3.05,1.29,3.79,3l3.81-1.49a7.6,7.6,0,0,0-7.6-5.19c-5.2,0-8.33,3.92-8.33,10.08m-14.42-2.39c.08-2.69,1.48-4.25,3.7-4.25s3.63,1.56,3.7,4.25Zm-4.58,2.39c0,6.14,3.14,10.06,8.13,10.06,3.71,0,6.29-1.19,8.07-4l-3.34-2.1c-1.14,1.34-2.13,2.32-4.28,2.32s-3.92-1.56-4-5.58H65.47v-1.91c0-4.65-2.82-8.95-7.86-8.92-5.2,0-8.34,3.92-8.34,10.08m-10.6-16.12v6.42H36v3.72h2.67v11.57c0,2.76,1.33,4.47,4.72,4.47a29.94,29.94,0,0,0,3.64-.3v-3.8a10.12,10.12,0,0,1-2.12.37c-1.14,0-1.66-.31-1.66-1.34v-11H47v-3.72H43.25v-6.42ZM96.3,36C61.46,36,41,60.6,41,94.57,41,127.23,60.8,151,94.34,151a57.8,57.8,0,0,0,26.42-6.17c-6.27-5.41-10.91-13.29-11.34-24.18-2.93,2.83-7.14,4.24-12,4.24-16.12,0-20.64-12.13-20.64-32.91,0-20.47,4.86-31.56,20.56-31.56,9.76,0,16.82,5.27,16.82,15.28h30.4C142.39,49.43,121.59,36,96.3,36m83.3,64.23c0,9.27-.16,14.26-4.36,20.66A19.29,19.29,0,0,1,159.13,130c-8.93,0-16.37-4.06-16.37-13.77,0-14.27,20.88-19.35,36.84-20.26Zm3,48.56h31.05a53.62,53.62,0,0,1-2.17-16.55V74.68c0-14-2.64-21.76-10.12-28.59C194.28,39.59,182.68,36,167,36c-13.56,0-25.27,2.88-34.19,8.42a43.13,43.13,0,0,1,14,22.69c3-4.72,8.87-6.78,16.46-6.78,12.53,0,16.16,8.74,16.27,16.08l.09,3.5C145,81.6,112.35,88.05,113,119.72c.43,22.19,20.53,31.26,34.33,31.25,16,0,25-4.29,33.82-15.23a74.75,74.75,0,0,0,1.51,13m32.76,34.37H208c.07-2.69,1.48-4.25,3.69-4.25s3.62,1.56,3.71,4.25m4.22,1.23c0-4.65-2.81-8.95-7.85-8.92-5.22,0-8.36,3.92-8.36,10.08s3.14,10.06,8.13,10.06c3.71,0,6.29-1.19,8.08-4l-3.32-2.1c-1.17,1.34-2.16,2.32-4.31,2.32s-3.92-1.56-4-5.58h11.62Zm5.57-41.89h-.82v-1.95h.86c.74,0,1.16.34,1.16,1s-.45,1-1.2,1m2.88,3.4-1.87-2.66a1.77,1.77,0,0,0,1.34-1.79c0-1.23-.94-1.9-2.31-1.9h-2V146h1.12v-2.68H225l2,2.8Zm2.17-2.88a4.81,4.81,0,0,1-5,5.19c-2.73,0-4.93-1.86-4.93-5.19s2.2-5.23,4.93-5.23a4.84,4.84,0,0,1,5,5.23m.78,0a5.76,5.76,0,1,0-5.75,5.9A5.56,5.56,0,0,0,231,143M232.74,181l2.89-2.52a8.78,8.78,0,0,0-6.78-3c-3.32,0-6.35,2-6.35,5.63,0,6.76,9.62,5.57,9.62,8.87,0,1.31-1.11,2.2-2.74,2.2-2,0-3.41-1.3-4.48-2.79l-3.07,2.31a8.45,8.45,0,0,0,7.28,3.92c4,0,7.07-1.79,7.07-5.81,0-7.1-9.61-5.67-9.61-9,0-1.16.8-1.9,2.58-1.9a5.24,5.24,0,0,1,3.59,2"
              transform="translate(-36 -36)"/>
    </g>
</svg>
