<?xml version="1.0" encoding="UTF-8"?>
<svg width="36px" height="36px" viewBox="0 0 36 36" version="1.1" xmlns="http://www.w3.org/2000/svg"
>
    <!-- Generator: Sketch 51.1 (57501) - http://www.bohemiancoding.com/sketch -->
    <title>AC-2</title>
    <desc>Created with Sketch.</desc>
    <defs></defs>
    <g id="Main" stroke="none" stroke-width="1" fill="none" fill-rule="evenodd">
        <g id="API-Catalog---Mineral---subtle-search" transform="translate(-24.000000, -13.000000)">
            <g id="Header-Box">
                <g id="AC-2" transform="translate(18.000000, 7.000000)">
                    <rect id="Rectangle-48" x="0" y="0" width="48" height="48"></rect>
                    <path
                        d="M28.2222222,26 L41.092109,32.0962622 C41.5912296,32.3326877 41.8041861,32.9289657 41.5677605,33.4280863 C41.4688932,33.6368061 41.3008288,33.8048706 41.092109,33.9037378 L37.7222222,35.5 L24,29 L10.2777778,35.5 L6.90789099,33.9037378 C6.40877037,33.6673123 6.19581394,33.0710343 6.4322395,32.5719137 C6.53110675,32.3631939 6.69917123,32.1951294 6.90789099,32.0962622 L19.7777778,26 L24,28 L28.2222222,26 Z"
                        id="Combined-Shape" fill="#FFFFFF" opacity="0.399999976"></path>
                    <path
                        d="M37.7222222,30.5 L41.092109,32.0962622 C41.5912296,32.3326877 41.8041861,32.9289657 41.5677605,33.4280863 C41.4688932,33.6368061 41.3008288,33.8048706 41.092109,33.9037378 L25.7123454,41.188889 C24.6285048,41.7022872 23.3714952,41.7022872 22.2876546,41.188889 L6.90789099,33.9037378 C6.40877037,33.6673123 6.19581394,33.0710343 6.4322395,32.5719137 C6.53110675,32.3631939 6.69917123,32.1951294 6.90789099,32.0962622 L10.2777778,30.5 L24,37 L37.7222222,30.5 Z"
                        id="Combined-Shape" fill="#FFFFFF"></path>
                    <path
                        d="M37.7222222,26.5 L24,20 L10.2777778,26.5 L6.90789099,24.9037378 C6.40877037,24.6673123 6.19581394,24.0710343 6.4322395,23.5719137 C6.53110675,23.3631939 6.69917123,23.1951294 6.90789099,23.0962622 L24,15 L41.092109,23.0962622 C41.5912296,23.3326877 41.8041861,23.9289657 41.5677605,24.4280863 C41.4688932,24.6368061 41.3008288,24.8048706 41.092109,24.9037378 L37.7222222,26.5 Z"
                        id="Combined-Shape" fill="#FFFFFF" opacity="0.399999976"></path>
                    <path
                        d="M37.7222222,21.5 L41.092109,23.0962622 C41.5912296,23.3326877 41.8041861,23.9289657 41.5677605,24.4280863 C41.4688932,24.6368061 41.3008288,24.8048706 41.092109,24.9037378 L25.7123454,32.188889 C24.6285048,32.7022872 23.3714952,32.7022872 22.2876546,32.188889 L6.90789099,24.9037378 C6.40877037,24.6673123 6.19581394,24.0710343 6.4322395,23.5719137 C6.53110675,23.3631939 6.69917123,23.1951294 6.90789099,23.0962622 L10.2777778,21.5 L24,28 L37.7222222,21.5 Z"
                        id="Combined-Shape" fill="#FFFFFF"></path>
                    <path
                        d="M25.7123454,6.81111097 L41.092109,14.0962622 C41.5912296,14.3326877 41.8041861,14.9289657 41.5677605,15.4280863 C41.4688932,15.6368061 41.3008288,15.8048706 41.092109,15.9037378 L25.7123454,23.188889 C24.6285048,23.7022872 23.3714952,23.7022872 22.2876546,23.188889 L6.90789099,15.9037378 C6.40877037,15.6673123 6.19581394,15.0710343 6.4322395,14.5719137 C6.53110675,14.3631939 6.69917123,14.1951294 6.90789099,14.0962622 L22.2876546,6.81111097 C23.3714952,6.29771278 24.6285048,6.29771278 25.7123454,6.81111097 Z"
                        id="Rectangle-29" fill="#FFFFFF"></path>
                </g>
            </g>
        </g>
    </g>
</svg>
