<svg width="50" height="50" viewBox="0 0 50 50" fill="none" xmlns="http://www.w3.org/2000/svg">
<g clip-path="url(#clip0_4164_297)">
<path d="M24.9999 0.544922C21.1507 0.545245 17.3557 1.45254 13.9225 3.19325C10.4893 4.93397 7.51464 7.45912 5.23952 10.564C2.9644 13.669 1.45288 17.2663 0.827484 21.0644C0.202089 24.8624 0.480415 28.7545 1.6399 32.4249C2.2149 32.1449 2.7999 31.8799 3.4099 31.6349C6.2099 30.5199 8.7749 30.8949 11.3399 32.4499L12.5599 33.1999C13.7549 33.9499 14.8849 34.6599 15.9699 34.6599C17.0549 34.6599 18.0249 34.3849 18.4699 32.3799C19.1449 29.2549 20.7849 21.5749 21.4999 17.7749C21.9199 15.5349 22.1499 14.3299 22.3899 13.5149C22.8099 12.0799 23.5749 11.2999 24.6649 11.1699C24.7725 11.1529 24.881 11.1428 24.9899 11.1399C25.0955 11.1425 25.2007 11.1525 25.3049 11.1699C26.3999 11.2899 27.1699 12.0749 27.5949 13.5149C27.8349 14.3299 28.0649 15.5149 28.4849 17.7749C29.1999 21.5749 30.8399 29.2749 31.5149 32.3799C31.9449 34.3799 32.9649 34.6599 34.0149 34.6599C35.0649 34.6599 36.2299 33.9499 37.4249 33.1999C37.7049 33.0199 38.6449 32.4499 38.6449 32.4499C41.2099 30.8949 43.7749 30.5199 46.5749 31.6349C47.1849 31.8799 47.7699 32.1349 48.3449 32.4249C49.504 28.7557 49.7825 24.865 49.1579 21.068C48.5333 17.2711 47.0231 13.6747 44.7497 10.5701C42.4763 7.4655 39.5036 4.94005 36.0723 3.19833C32.6411 1.45662 28.8479 0.5476 24.9999 0.544922Z" fill="#CC092F"/>
<path d="M42.0604 35.175C41.1543 35.5255 40.2946 35.9856 39.5004 36.545C37.9554 37.51 36.2104 38.61 34.0004 38.61C30.7054 38.61 28.3904 36.645 27.6504 33.21C27.0654 30.555 25.0004 20.5 25.0004 20.5C24.1854 24.595 22.9153 30.535 22.3454 33.19C21.6054 36.625 19.2904 38.59 15.9954 38.59C13.7704 38.59 12.0254 37.49 10.4954 36.525C9.70062 35.9664 8.84099 35.5064 7.93535 35.155C6.9971 34.8549 5.98861 34.8549 5.05035 35.155C4.38212 35.3619 3.73304 35.6262 3.11035 35.945C5.098 40.0044 8.18298 43.4258 12.0157 45.8216C15.8484 48.2173 20.2755 49.4916 24.7954 49.5C29.3709 49.502 33.8575 48.2359 37.7569 45.8422C41.6564 43.4485 44.8161 40.0209 46.8853 35.94C46.2627 35.6212 45.6136 35.3569 44.9454 35.15C44.0045 34.858 42.996 34.8668 42.0604 35.175Z" fill="#CC092F"/>
<path d="M46.545 31.6349C43.745 30.4999 41.18 30.8949 38.615 32.4499C38.615 32.4499 37.675 33.0199 37.395 33.1999C36.2 33.9499 35.07 34.6599 33.985 34.6599C32.9 34.6599 31.93 34.3849 31.485 32.3799C30.81 29.2549 29.17 21.5749 28.455 17.7749C28.035 15.5349 27.805 14.3299 27.565 13.5149C27.14 12.0749 26.37 11.2899 25.275 11.1699C25.1709 11.1525 25.0656 11.1425 24.96 11.1399C24.8512 11.1428 24.7426 11.1528 24.635 11.1699C23.545 11.2999 22.78 12.0799 22.36 13.5149C22.12 14.3299 21.89 15.5149 21.47 17.7749C20.755 21.5749 19.115 29.2749 18.44 32.3799C18.01 34.3799 16.99 34.6599 15.94 34.6599C14.89 34.6599 13.725 33.9499 12.53 33.1999L11.31 32.4499C8.77504 30.8949 6.21004 30.4999 3.41004 31.6349C2.80504 31.8749 2.23004 32.1349 1.66504 32.4149C2.04853 33.6175 2.5267 34.7878 3.09504 35.9149C3.70702 35.6059 4.34435 35.35 5.00004 35.1499C5.93829 34.8498 6.94679 34.8498 7.88504 35.1499C8.79068 35.5013 9.6503 35.9613 10.445 36.5199C11.99 37.4849 13.735 38.5849 15.945 38.5849C19.24 38.5849 21.555 36.6199 22.295 33.1849C22.89 30.5549 24.16 24.6149 25 20.4999C25 20.4999 27.09 30.5349 27.66 33.1899C28.4 36.6249 30.715 38.5899 34.01 38.5899C36.235 38.5899 37.98 37.4899 39.51 36.5249C40.3042 35.9654 41.164 35.5054 42.07 35.1549C43.0083 34.8548 44.0168 34.8548 44.955 35.1549C45.6145 35.3577 46.2552 35.617 46.87 35.9299C47.4384 34.8028 47.9165 33.6325 48.3 32.4299C47.725 32.1399 47.15 31.8749 46.545 31.6349Z" fill="white"/>
</g>
<defs>
<clipPath id="clip0_4164_297">
<rect width="50" height="50" fill="white"/>
</clipPath>
</defs>
</svg>
