<svg width="126" height="25" viewBox="0 0 126 25" fill="none" xmlns="http://www.w3.org/2000/svg">
<g id="logo-grp">
<g id="logo-lower">
<path id="Vector" d="M21.6836 19.1224H22.322L24.3565 22.1705L26.3909 19.1224H27.0293V24.7084H26.3997V20.1834L24.3652 23.1755H24.3337L22.2992 20.1905V24.7066H21.6853V19.1206L21.6836 19.1224Z" fill="black"/>
<path id="Vector_2" d="M30.6519 19.0837H31.2429L33.7877 24.7101H33.109L32.4548 23.2333H29.4136L28.7507 24.7101H28.1035L30.6501 19.0837H30.6519ZM32.2075 22.6581L30.9377 19.8168L29.6609 22.6581H32.2075Z" fill="black"/>
<path id="Vector_3" d="M34.9219 19.1223H35.5515V24.7083H34.9219V19.1223Z" fill="black"/>
<path id="Vector_4" d="M37.1621 19.1223H37.7532L41.2731 23.5999V19.1223H41.887V24.7083H41.3836L37.776 20.1273V24.7083H37.1621V19.1223Z" fill="black"/>
<path id="Vector_5" d="M43.4434 19.1223H47.4579V19.7046H44.0747V21.7005H47.1001V22.2757H44.0747V24.7101H43.4451V19.1241L43.4434 19.1223Z" fill="black"/>
<path id="Vector_6" d="M48.6543 19.1224H51.0571C51.7428 19.1224 52.2935 19.3293 52.6443 19.6801C52.9161 19.9519 53.0757 20.343 53.0757 20.7815V20.7973C53.0757 21.7233 52.4373 22.2653 51.5604 22.4249L53.2757 24.7066H52.5022L50.8817 22.5353H49.2857V24.7066H48.656V19.1206L48.6543 19.1224ZM51.0009 21.9706C51.8393 21.9706 52.4373 21.5392 52.4373 20.8218V20.8061C52.4373 20.1203 51.9112 19.7046 51.0097 19.7046H49.2857V21.9706H51.0009Z" fill="black"/>
<path id="Vector_7" d="M56.4685 19.0837H57.0595L59.6061 24.7101H58.9274L58.2732 23.2333H55.232L54.569 24.7101H53.9219L56.4667 19.0837H56.4685ZM58.0241 22.6581L56.7561 19.8168L55.4793 22.6581H58.0241Z" fill="black"/>
<path id="Vector_8" d="M60.6797 19.1224H61.3181L63.3526 22.1705L65.387 19.1224H66.0254V24.7084H65.3958V20.1834L63.3613 23.1755H63.3298L61.2953 20.1905V24.7066H60.6814V19.1206L60.6797 19.1224Z" fill="black"/>
<path id="Vector_9" d="M67.584 19.1223H71.6213V19.6976H68.2136V21.6058H71.2618V22.181H68.2136V24.1366H71.6617V24.7118H67.584V19.1258V19.1223Z" fill="black"/>
<path id="Vector_10" d="M74.9102 23.8946L75.3013 23.4316C75.8835 23.9578 76.443 24.2209 77.2165 24.2209C77.9899 24.2209 78.4617 23.821 78.4617 23.2703V23.2545C78.4617 22.7354 78.1828 22.4407 77.0095 22.1934C75.7239 21.9146 75.1346 21.4989 75.1346 20.5816V20.5658C75.1346 19.6889 75.9081 19.0417 76.9692 19.0417C77.783 19.0417 78.3652 19.2733 78.9317 19.7275L78.5652 20.2151C78.046 19.7924 77.5269 19.6082 76.9534 19.6082C76.2273 19.6082 75.7643 20.0081 75.7643 20.5097V20.5255C75.7643 21.0517 76.0519 21.3481 77.2814 21.6111C78.5266 21.883 79.1001 22.3372 79.1001 23.1914V23.2071C79.1001 24.1647 78.3021 24.7874 77.1919 24.7874C76.3062 24.7874 75.5801 24.4927 74.9102 23.8929V23.8946Z" fill="black"/>
<path id="Vector_11" d="M80.1113 21.932V21.9162C80.1113 20.3763 81.2689 19.0276 82.9683 19.0276C84.6678 19.0276 85.8096 20.3605 85.8096 21.9004V21.9162C85.8096 23.4561 84.652 24.8048 82.9526 24.8048C81.2531 24.8048 80.1113 23.4718 80.1113 21.932ZM85.1554 21.932V21.9162C85.1554 20.6481 84.2294 19.6099 82.9526 19.6099C81.6758 19.6099 80.7655 20.6306 80.7655 21.9004V21.9162C80.7655 23.186 81.6915 24.2225 82.9683 24.2225C84.2452 24.2225 85.1554 23.2017 85.1554 21.932Z" fill="black"/>
<path id="Vector_12" d="M87.1172 19.1223H91.1317V19.7046H87.7486V21.7005H90.774V22.2757H87.7486V24.7101H87.1189V19.1241L87.1172 19.1223Z" fill="black"/>
<path id="Vector_13" d="M93.8046 19.7046H91.9297V19.1223H96.3196V19.7046H94.4447V24.7083H93.8063V19.7046H93.8046Z" fill="black"/>
<path id="Vector_14" d="M97.0449 19.1222H97.7307L99.3267 23.7752L100.86 19.1064H101.379L102.912 23.7752L104.508 19.1222H105.17L103.175 24.7486H102.64L101.107 20.2166L99.567 24.7486H99.0408L97.0449 19.1222Z" fill="black"/>
<path id="Vector_15" d="M107.634 19.0837H108.226L110.772 24.7101H110.093L109.439 23.2333H106.398L105.735 24.7101H105.088L107.633 19.0837H107.634ZM109.19 22.6581L107.922 19.8168L106.645 22.6581H109.19Z" fill="black"/>
<path id="Vector_16" d="M111.85 19.1224H114.252C114.938 19.1224 115.489 19.3293 115.84 19.6801C116.111 19.9519 116.271 20.343 116.271 20.7815V20.7973C116.271 21.7233 115.633 22.2653 114.754 22.4249L116.469 24.7066H115.696L114.075 22.5353H112.479V24.7066H111.85V19.1206V19.1224ZM114.196 21.9706C115.035 21.9706 115.633 21.5392 115.633 20.8218V20.8061C115.633 20.1203 115.107 19.7046 114.205 19.7046H112.481V21.9706H114.196Z" fill="black"/>
<path id="Vector_17" d="M117.594 19.1223H121.631V19.6976H118.223V21.6058H121.272V22.181H118.223V24.1366H121.671V24.7118H117.594V19.1258V19.1223Z" fill="black"/>
</g>
<g id="bc-upper-logo">
<path id="Vector_18" d="M124.739 2.87305C124.043 2.87305 123.478 3.43954 123.478 4.13582C123.478 4.8321 124.044 5.39684 124.739 5.39684C125.434 5.39684 126 4.83034 126 4.13582C126 3.44129 125.434 2.87305 124.739 2.87305ZM124.739 5.14954C124.181 5.14954 123.725 4.6953 123.725 4.13582C123.725 3.57634 124.18 3.12209 124.739 3.12209C125.298 3.12209 125.753 3.57634 125.753 4.13582C125.753 4.6953 125.298 5.14954 124.739 5.14954ZM125.258 3.91834C125.255 3.69736 125.102 3.536 124.853 3.53951L124.295 3.54653L124.311 4.7409L124.565 4.73739L124.56 4.31296H124.746L124.986 4.73213L125.277 4.72862L125.002 4.27788C125.13 4.24631 125.262 4.13056 125.258 3.92009V3.91834ZM124.821 4.08671L124.555 4.09022L124.551 3.76751L124.818 3.764C124.92 3.764 124.997 3.82188 124.999 3.9236C124.999 4.02357 124.923 4.08496 124.821 4.08671ZM102.227 2.89585C98.8767 2.89585 96.16 5.61256 96.16 8.96241C96.16 12.3123 98.8767 15.029 102.227 15.029C105.576 15.029 108.293 12.314 108.293 8.96241C108.293 5.61081 105.578 2.89585 102.227 2.89585ZM102.227 12.6508C100.19 12.6508 98.5383 10.9986 98.5383 8.96241C98.5383 6.92619 100.19 5.27407 102.227 5.27407C104.263 5.27407 105.915 6.92444 105.915 8.96241C105.915 11.0004 104.263 12.6508 102.227 12.6508ZM28.9052 8.74844C29.9926 8.52395 30.8888 7.55758 30.8888 6.1089C30.8888 4.57253 29.7681 3.17471 27.5775 3.17471H21.5215V14.6835H27.7669C29.9575 14.6835 31.1133 13.3032 31.1133 11.5774C31.1133 10.1287 30.1294 8.93786 28.9052 8.74844ZM23.9716 5.28108H27.0426C27.8704 5.28108 28.3878 5.816 28.3878 6.54034C28.3878 7.26468 27.8704 7.78207 27.0426 7.78207H23.9716V5.28108ZM27.1285 12.5613H23.9716V9.88844H27.1285C28.0949 9.88844 28.6123 10.5093 28.6123 11.2336C28.6123 12.0615 28.0598 12.5631 27.1285 12.5631V12.5613ZM42.5115 6.88761C42.5115 4.74791 41.0453 3.17822 38.6478 3.17822H33.2653V14.6835H35.7154V10.5952H37.5096L39.7685 14.6835H42.5799L39.9913 10.3006C41.233 10.0077 42.5098 8.92032 42.5098 6.8841L42.5115 6.88761ZM38.283 8.43626H35.7119V5.3337H38.283C39.2669 5.3337 40.0088 5.92124 40.0088 6.88585C40.0088 7.85047 39.2669 8.43801 38.283 8.43801V8.43626ZM61.3917 3.17646L56.9405 14.6835H59.7343L60.4587 12.7349H65.3923L66.0991 14.6835H68.8947L64.461 3.17646H61.39H61.3917ZM61.1339 10.5777L62.9281 5.62659L64.7223 10.5777H61.1339ZM75.5505 3.17646H71.0133V14.6835H75.5505C79.1565 14.6835 81.6575 12.407 81.6575 8.93961C81.6575 5.47225 79.1565 3.17646 75.5505 3.17646ZM75.5505 12.5262H73.4635V5.3337H75.5505C77.9147 5.3337 79.1565 6.90339 79.1565 8.93961C79.1565 10.9758 77.8288 12.528 75.5505 12.528V12.5262ZM118.771 3.17471L115.754 8.05392L112.736 3.17471H110.028V14.6835H112.478V7.16121L115.116 11.1723C115.417 11.6318 116.089 11.6318 116.391 11.1723L119.028 7.16121V14.6835H121.479V3.17471H118.771ZM50.2793 2.89234C46.9277 2.89234 44.2128 5.60905 44.2128 8.9589C44.2128 12.3088 46.9277 15.0255 50.2793 15.0255C53.6309 15.0255 56.3459 12.3105 56.3459 8.9589C56.3459 5.6073 53.6292 2.89234 50.2793 2.89234ZM50.2793 12.6472C48.2431 12.6472 46.591 10.9951 46.591 8.9589C46.591 6.92268 48.2431 5.27056 50.2793 5.27056C52.3156 5.27056 53.9677 6.92093 53.9677 8.9589C53.9677 10.9969 52.3156 12.6472 50.2793 12.6472ZM92.6839 10.7443C92.0543 11.8791 90.8459 12.6472 89.4568 12.6472C87.4206 12.6472 85.7685 10.9969 85.7685 8.9589C85.7685 6.92093 87.4206 5.27056 89.4568 5.27056C90.8353 5.27056 92.0332 6.02822 92.6664 7.14718L94.3869 5.42665C93.2855 3.89379 91.4878 2.89234 89.4568 2.89234C86.1052 2.89234 83.3903 5.60905 83.3903 8.9589C83.3903 12.3088 86.1052 15.0255 89.4568 15.0255C91.5001 15.0255 93.3065 14.0135 94.4062 12.4648L92.6839 10.7426V10.7443Z" fill="black"/>
<path id="Vector_19" d="M8.54475 0.5C13.2644 0.5 17.0895 4.32514 17.0895 9.04475C17.0895 9.94623 16.9492 10.8144 16.6914 11.6282C16.4914 11.5317 16.288 11.4388 16.074 11.3528C15.0971 10.9635 14.2009 11.0932 13.3047 11.6369C13.3047 11.6369 12.9785 11.8369 12.8803 11.8983C12.4628 12.1596 12.0682 12.4086 11.6894 12.4086C11.3106 12.4086 10.9721 12.3122 10.8212 11.6124C10.5862 10.5215 10.0127 7.84161 9.76368 6.51395C9.61635 5.73349 9.53743 5.31256 9.45325 5.02668C9.30592 4.52508 9.03583 4.25148 8.65349 4.20764C8.65349 4.20764 8.59386 4.19887 8.54475 4.19887C8.49564 4.19887 8.43075 4.20764 8.43075 4.20764C8.05017 4.25324 7.78358 4.52684 7.63626 5.02668C7.55207 5.31256 7.4714 5.73173 7.32583 6.51395C7.07678 7.84161 6.50327 10.5215 6.26826 11.6124C6.11742 12.3122 5.76139 12.4086 5.4001 12.4086C5.03881 12.4086 4.62665 12.1596 4.20924 11.8983C4.11102 11.8369 3.78481 11.6369 3.78481 11.6369C2.88859 11.0932 1.99237 10.9635 1.01548 11.3528C0.801509 11.4388 0.598062 11.5317 0.398124 11.6282C0.140308 10.8126 0 9.94448 0 9.04475C0 4.32514 3.82514 0.5 8.54475 0.5ZM14.5078 12.5875C14.1851 12.6945 13.8993 12.8874 13.6134 13.0663C13.0749 13.4048 12.4646 13.7889 11.6894 13.7889C10.5389 13.7889 9.73035 13.1014 9.47254 11.9035C9.2726 10.9757 8.543 7.4733 8.543 7.4733C8.25887 8.90269 7.81515 10.9757 7.61521 11.9035C7.3574 13.1014 6.54887 13.7889 5.39835 13.7889C4.62315 13.7889 4.01281 13.4048 3.47437 13.0663C3.1885 12.8874 2.90262 12.6963 2.57991 12.5875C2.24843 12.477 1.90643 12.4823 1.5732 12.5805C1.33819 12.6489 1.11545 12.7471 0.896217 12.8559C2.29579 15.662 5.13001 17.5895 8.47986 17.5895C11.8297 17.5895 14.7902 15.662 16.1898 12.8559C15.9723 12.7489 15.7478 12.6507 15.5128 12.5805C15.1778 12.4823 14.8376 12.477 14.5061 12.5875" fill="#CC092F"/>
<path id="Vector_20" d="M16.0732 11.3529C15.0963 10.9636 14.2018 11.0934 13.3039 11.637C13.3039 11.637 12.9776 11.837 12.8794 11.8984C12.462 12.1597 12.0674 12.4087 11.6886 12.4087C11.3097 12.4087 10.9712 12.3123 10.8204 11.6125C10.5854 10.5216 10.0136 7.84172 9.76283 6.51406C9.61551 5.73359 9.53483 5.31267 9.45065 5.02679C9.30333 4.52519 9.03323 4.25159 8.65089 4.20774C8.65089 4.20774 8.59126 4.19897 8.54216 4.19897C8.49305 4.19897 8.42815 4.20774 8.42815 4.20774C8.04932 4.25334 7.78098 4.52694 7.63542 5.02679C7.55123 5.31267 7.47055 5.73184 7.32323 6.51406C7.07418 7.84172 6.50068 10.5216 6.26566 11.6125C6.11483 12.3123 5.76055 12.4087 5.3975 12.4087C5.03446 12.4087 4.62406 12.1597 4.20664 11.8984C4.10843 11.837 3.78221 11.637 3.78221 11.637C2.88599 11.0934 1.99153 10.9636 1.01464 11.3529C0.804174 11.4371 0.602482 11.5283 0.404297 11.6248C0.539343 12.0492 0.707713 12.4578 0.904144 12.8507C1.11987 12.7455 1.34085 12.649 1.57236 12.5806C1.90559 12.4824 2.24759 12.4771 2.57907 12.5876C2.90178 12.6964 3.18765 12.8875 3.47353 13.0664C4.01196 13.4049 4.6223 13.7873 5.39926 13.7873C6.54978 13.7873 7.35655 13.1015 7.61437 11.9036C7.81431 10.9758 8.25803 8.9028 8.54216 7.47341C8.54216 7.47341 9.27176 10.9758 9.47169 11.9036C9.72951 13.1015 10.538 13.7873 11.6886 13.7873C12.4655 13.7873 13.0741 13.4049 13.6143 13.0664C13.9002 12.8875 14.186 12.6964 14.5087 12.5876C14.8402 12.4771 15.1822 12.4824 15.5155 12.5806C15.747 12.649 15.9679 12.7455 16.1837 12.8507C16.3801 12.4596 16.5485 12.0492 16.6835 11.6248C16.4853 11.5283 16.2836 11.4371 16.0732 11.3529Z" fill="white"/>
</g>
</g>
</svg>
