<svg width="40" height="40" viewBox="0 0 40 40" fill="none" xmlns="http://www.w3.org/2000/svg">
<g clip-path="url(#clip0_3166_19)">
<path d="M19.9997 0.436035C16.9203 0.436293 13.8843 1.16213 11.1378 2.5547C8.39127 3.94727 6.01151 5.9674 4.19142 8.45133C2.37132 10.9353 1.16211 13.8131 0.661792 16.8516C0.161476 19.8901 0.384137 23.0037 1.31173 25.94C1.77173 25.716 2.23973 25.504 2.72773 25.308C4.96773 24.416 7.01973 24.716 9.07173 25.96L10.0477 26.56C11.0037 27.16 11.9077 27.728 12.7757 27.728C13.6437 27.728 14.4197 27.508 14.7757 25.904C15.3157 23.404 16.6277 17.26 17.1997 14.22C17.5357 12.428 17.7197 11.464 17.9117 10.812C18.2477 9.66403 18.8597 9.04003 19.7317 8.93603C19.8178 8.92238 19.9046 8.91436 19.9917 8.91203C20.0762 8.9141 20.1604 8.92212 20.2437 8.93603C21.1197 9.03203 21.7357 9.66003 22.0757 10.812C22.2677 11.464 22.4517 12.412 22.7877 14.22C23.3597 17.26 24.6717 23.42 25.2117 25.904C25.5557 27.504 26.3717 27.728 27.2117 27.728C28.0517 27.728 28.9837 27.16 29.9397 26.56C30.1637 26.416 30.9157 25.96 30.9157 25.96C32.9677 24.716 35.0197 24.416 37.2597 25.308C37.7477 25.504 38.2157 25.708 38.6757 25.94C39.603 23.0046 39.8258 19.8921 39.3261 16.8545C38.8265 13.817 37.6183 10.9398 35.7996 8.45616C33.9808 5.97249 31.6027 3.95214 28.8577 2.55877C26.1127 1.16539 23.0781 0.438178 19.9997 0.436035Z" fill="#CC092F"/>
<path d="M33.6483 28.1399C32.9234 28.4203 32.2357 28.7883 31.6003 29.2359C30.3643 30.0079 28.9683 30.8879 27.2003 30.8879C24.5643 30.8879 22.7123 29.3159 22.1203 26.5679C21.6523 24.4439 20.0003 16.3999 20.0003 16.3999C19.3483 19.6759 18.3323 24.4279 17.8763 26.5519C17.2843 29.2999 15.4323 30.8719 12.7963 30.8719C11.0163 30.8719 9.62028 29.9919 8.39628 29.2199C7.76049 28.773 7.07279 28.405 6.34828 28.1239C5.59768 27.8838 4.79088 27.8838 4.04028 28.1239C3.5057 28.2894 2.98643 28.5009 2.48828 28.7559C4.0784 32.0034 6.54639 34.7405 9.61254 36.6572C12.6787 38.5738 16.2204 39.5932 19.8363 39.5999C23.4967 39.6015 27.086 38.5886 30.2055 36.6737C33.3251 34.7587 35.8529 32.0166 37.5083 28.7519C37.0101 28.4969 36.4909 28.2854 35.9563 28.1199C35.2036 27.8863 34.3968 27.8933 33.6483 28.1399Z" fill="#CC092F"/>
<path d="M37.236 25.3081C34.996 24.4001 32.944 24.7161 30.892 25.9601C30.892 25.9601 30.14 26.4161 29.916 26.5601C28.96 27.1601 28.056 27.7281 27.188 27.7281C26.32 27.7281 25.544 27.5081 25.188 25.9041C24.648 23.4041 23.336 17.2601 22.764 14.2201C22.428 12.4281 22.244 11.4641 22.052 10.8121C21.712 9.66011 21.096 9.03211 20.22 8.93611C20.1367 8.92219 20.0525 8.91417 19.968 8.91211C19.8809 8.91444 19.7941 8.92245 19.708 8.93611C18.836 9.04011 18.224 9.66411 17.888 10.8121C17.696 11.4641 17.512 12.4121 17.176 14.2201C16.604 17.2601 15.292 23.4201 14.752 25.9041C14.408 27.5041 13.592 27.7281 12.752 27.7281C11.912 27.7281 10.98 27.1601 10.024 26.5601L9.04803 25.9601C7.02003 24.7161 4.96803 24.4001 2.72803 25.3081C2.24403 25.5001 1.78403 25.7081 1.33203 25.9321C1.63883 26.8942 2.02136 27.8305 2.47603 28.7321C2.96562 28.485 3.47548 28.2802 4.00003 28.1201C4.75063 27.88 5.55743 27.88 6.30803 28.1201C7.03254 28.4012 7.72024 28.7692 8.35603 29.2161C9.59203 29.9881 10.988 30.8681 12.756 30.8681C15.392 30.8681 17.244 29.2961 17.836 26.5481C18.312 24.4441 19.328 19.6921 20 16.4001C20 16.4001 21.672 24.4281 22.128 26.5521C22.72 29.3001 24.572 30.8721 27.208 30.8721C28.988 30.8721 30.384 29.9921 31.608 29.2201C32.2434 28.7726 32.9312 28.4045 33.656 28.1241C34.4066 27.884 35.2134 27.884 35.964 28.1241C36.4916 28.2864 37.0041 28.4938 37.496 28.7441C37.9507 27.8425 38.3332 26.9062 38.64 25.9441C38.18 25.7121 37.72 25.5001 37.236 25.3081Z" fill="white"/>
</g>
<defs>
<clipPath id="clip0_3166_19">
<rect width="40" height="40" fill="white"/>
</clipPath>
</defs>
</svg>
