<?xml version="1.0" encoding="UTF-8"?>
<svg width="56px" height="32px" viewBox="0 0 56 32" version="1.1" xmlns="http://www.w3.org/2000/svg" xmlns:xlink="http://www.w3.org/1999/xlink">
    <!-- Generator: Sketch 52.5 (67469) - http://www.bohemiancoding.com/sketch -->
    <title>CA Logo</title>
    <desc>Created with Sketch.</desc>
    <g id="Page-1" stroke="none" stroke-width="1" fill="none" fill-rule="evenodd">
        <g id="CEM-ACTIONS-ORANGE" transform="translate(-46.000000, -1259.000000)">
            <g id="Footer/Sky-Blue" transform="translate(24.000000, 1244.000000)">
                <g id="Group" transform="translate(22.000000, 0.000000)">
                    <g id="CA-Logo" transform="translate(0.000000, 3.000000)">
                        <rect id="Rectangle" x="0" y="0" width="56" height="56"></rect>
                        <path d="M47.0465206,38.7792231 L47.0465206,22.7636748 C47.0465206,18.8714233 46.3189,16.709802 44.256942,14.8058867 C42.3004999,12.9997221 39.1064434,12 34.7714954,12 C31.0344713,12 27.816234,12.8019993 25.3585911,14.3460146 C27.275145,15.9867684 28.6286861,18.1984621 29.225312,20.6642583 C30.0496555,19.35129 31.6653689,18.7781159 33.7559042,18.7781159 C37.2027594,18.7781159 38.2051611,21.2218811 38.2337384,23.2524278 L38.2579191,24.2254907 C28.7241111,24.6986925 19.7420637,26.4915275 19.9135271,35.3046333 C20.0344308,41.4806944 25.5674248,44.0044374 29.3659999,43.9999941 C33.7822832,43.9999941 36.2531156,42.8047708 38.6777848,39.7611724 C38.7093624,40.9829787 38.8498866,42.1994189 39.0976504,43.3957177 L47.6444444,43.3957177 C47.1674243,41.8694752 47.0465206,40.3543408 47.0465206,38.7792231 Z M38.2535226,29.8705882 C38.2535226,32.4498713 38.2095576,33.8405958 37.0554766,35.6201012 C36.0354889,37.1952189 34.4175773,38.1660602 32.6194092,38.1660602 C30.1617662,38.1660602 28.1129977,37.0352634 28.1129977,34.3337921 C28.1129977,30.3637845 33.8592219,28.9508439 38.2557209,28.6953593 L38.2535226,29.8705882 Z M18.7985442,35.5555556 C18.910349,38.5822222 20.1840462,40.7777778 21.9049625,42.2844444 C19.6403682,43.4911111 17.0052837,44 14.6486149,44 C5.43897238,44 0,37.3911111 0,28.3022222 C0,18.8466667 5.62092914,12 15.1879084,12 C22.1329565,12 27.8437679,15.7377778 28.4444444,23.0444444 L20.1051252,23.0444444 C20.1051252,20.2577778 18.1671762,18.7888889 15.4882466,18.7888889 C11.1760908,18.7888889 9.84320274,21.8777778 9.84320274,27.5755556 C9.84320274,33.36 11.081824,36.7355556 15.5101691,36.7355556 C16.8255192,36.7355556 17.9939884,36.3422222 18.7985442,35.5555556 Z M52.9555556,43.1708333 C51.1805556,43.1708333 49.9555556,41.9208333 49.9555556,40.0958333 C49.9555556,38.2708333 51.2055556,37 52.9555556,37 C54.7055556,37 55.9555556,38.25 55.9555556,40.0958333 C55.9555556,41.9416667 54.7097222,43.1708333 52.9555556,43.1708333 Z M52.9555556,37.3666667 C51.5347222,37.3666667 50.3847222,38.3416667 50.3847222,40.0958333 C50.3847222,41.85 51.5347222,42.8041667 52.9555556,42.8041667 C54.3763889,42.8041667 55.5472222,41.8333333 55.5472222,40.0958333 C55.5472222,38.3583333 54.3763889,37.3666667 52.9555556,37.3666667 Z M53.8347222,41.7291667 L52.8013889,40.2666667 L52.4680556,40.2666667 L52.4680556,41.6666667 L51.8847222,41.6666667 L51.8847222,38.275 L52.9180556,38.275 C53.6388889,38.275 54.1263889,38.6291667 54.1263889,39.2708333 C54.143404,39.7084201 53.8512364,40.0979769 53.4263889,40.2041667 L54.4013889,41.5875 L53.8347222,41.7291667 Z M52.9180556,38.8125 L52.4680556,38.8125 L52.4680556,39.825 L52.8847222,39.825 C53.2722222,39.825 53.5055556,39.65 53.5055556,39.3208333 C53.5055556,38.9916667 53.3263889,38.8083333 52.9388889,38.8083333 L52.9180556,38.8125 Z" id="Combined-Shape" fill="#707A8A" fill-rule="nonzero"></path>
                    </g>
                </g>
            </g>
        </g>
    </g>
</svg>