<svg width="50" height="50" viewBox="0 0 50 50" fill="none" xmlns="http://www.w3.org/2000/svg">
<path d="M25 0C11.2146 0 0 11.2146 0 25C0 38.7854 11.2146 50 25 50C38.7833 50 50 38.7854 50 25C50 11.2146 38.7833 0 25 0ZM25 2.38333C37.4896 2.38333 47.6167 12.5083 47.6167 25C47.6167 37.4896 37.4917 47.6167 25 47.6167C12.5083 47.6167 2.38333 37.4917 2.38333 25C2.38333 12.5083 12.5083 2.38333 25 2.38333ZM17.4375 12.225C17.1437 12.2192 16.8498 12.2227 16.5562 12.2354C14.5083 12.3521 13.2792 13.3125 12.9417 15.3021C12.7021 16.6875 12.7417 18.1104 12.6437 19.5042C12.6167 20.2333 12.5396 20.9562 12.4042 21.6667C12.125 22.9354 11.5771 23.3292 10.2875 23.3958C10.1168 23.4171 9.94715 23.4463 9.77917 23.4833V26.5312C12.125 26.6458 12.4417 27.4729 12.6333 29.925C12.7021 30.8188 12.6062 31.7125 12.6646 32.6062C12.7021 33.4521 12.8167 34.2896 12.9896 35.1062C13.5292 37.3458 15.7125 38.0958 18.3542 37.6437V34.9708C17.9312 34.9708 17.5562 34.9812 17.1917 34.9708C16.2958 34.9437 15.9604 34.7208 15.875 33.8562C15.7583 32.7417 15.7875 31.6062 15.7188 30.4812C15.5854 28.3958 15.3542 26.3396 13.3167 25.0125C14.3646 24.2417 15.125 23.3208 15.3646 22.1C15.5375 21.2458 15.6437 20.3896 15.7104 19.5229C15.7687 18.6583 15.6625 17.7729 15.7396 16.9188C15.8646 15.5333 15.9521 14.9667 17.6146 15.0229C17.8646 15.0229 18.1042 14.9875 18.3833 14.9667V12.2375C18.05 12.2375 17.7375 12.2292 17.4375 12.225ZM33.2562 12.2437C32.689 12.231 32.1218 12.2729 31.5625 12.3687V15.0229C32.0729 15.0229 32.4667 15.0229 32.8604 15.0333C33.5437 15.0417 34.0625 15.3042 34.1312 16.0625C34.1979 16.7542 34.1958 17.4562 34.2646 18.1583C34.4 19.5521 34.475 20.9646 34.7167 22.3396C34.9292 23.4729 35.7062 24.3187 36.6771 25.0125C34.975 26.1562 34.475 27.7896 34.3896 29.6271C34.3417 30.8854 34.3125 32.1542 34.2458 33.4229C34.1875 34.5771 33.7833 34.9521 32.6208 34.9813C32.2937 34.9896 31.975 35.0187 31.6125 35.0396V37.7583C32.2937 37.7583 32.9187 37.7979 33.5437 37.7583C35.4854 37.6437 36.6583 36.7021 37.0438 34.8167C37.2062 33.7792 37.3021 32.7333 37.3312 31.6833C37.3979 30.7229 37.3896 29.7521 37.4854 28.8C37.6292 27.3104 38.3125 26.6958 39.8021 26.5979C39.9433 26.5806 40.0822 26.5485 40.2167 26.5021V23.4542C39.9667 23.425 39.7917 23.3979 39.6104 23.3875C38.4937 23.3396 37.9354 22.9646 37.6583 21.9083C37.4856 21.2307 37.3795 20.5378 37.3417 19.8396C37.2646 18.5521 37.2729 17.2542 37.1875 15.9646C37.0208 13.4812 35.5333 12.3125 33.2562 12.2437ZM18.9021 23.2437C18.4504 23.2432 18.0158 23.4166 17.6885 23.7278C17.3612 24.0391 17.1662 24.4644 17.1439 24.9155C17.1217 25.3667 17.2739 25.8091 17.5691 26.151C17.8642 26.4929 18.2796 26.7082 18.7292 26.7521H18.8438C19.3015 26.7788 19.7512 26.6227 20.0938 26.3179C20.4364 26.0132 20.644 25.5848 20.6708 25.1271V25.0312C20.6781 24.5651 20.5001 24.115 20.1759 23.7799C19.8517 23.4448 19.4078 23.252 18.9417 23.2437H18.9021ZM24.9667 23.2437C24.5209 23.2291 24.0875 23.3921 23.7617 23.6967C23.4359 24.0014 23.2444 24.423 23.2292 24.8687C23.2292 24.925 23.2292 24.9729 23.2375 25.0312C23.2375 26.0792 23.95 26.7521 25.0271 26.7521C26.0833 26.7521 26.7479 26.0604 26.7479 24.975C26.7375 23.9271 26.0354 23.2333 24.9667 23.2437ZM31.1396 23.2437C30.6677 23.2353 30.2115 23.4132 29.8699 23.7388C29.5283 24.0644 29.3288 24.5116 29.3146 24.9833C29.3146 25.9625 30.1021 26.7521 31.0833 26.7521H31.1021C31.9875 26.9062 32.8792 26.05 32.9375 25.0229C32.9854 24.0708 32.1208 23.2437 31.1396 23.2437Z" fill="#219653"/>
</svg>
