<svg width="40" height="40" viewBox="0 0 40 40" fill="none" xmlns="http://www.w3.org/2000/svg">
<g clip-path="url(#clip0_3166_1397)">
<path d="M20 0C8.97167 0 0 8.97167 0 20C0 31.0283 8.97167 40 20 40C31.0267 40 40 31.0283 40 20C40 8.97167 31.0267 0 20 0ZM20 1.90667C29.9917 1.90667 38.0933 10.0067 38.0933 20C38.0933 29.9917 29.9933 38.0933 20 38.0933C10.0067 38.0933 1.90667 29.9933 1.90667 20C1.90667 10.0067 10.0067 1.90667 20 1.90667ZM13.95 9.78C13.715 9.77536 13.4799 9.77814 13.245 9.78833C11.6067 9.88167 10.6233 10.65 10.3533 12.2417C10.1617 13.35 10.1933 14.4883 10.115 15.6033C10.0933 16.1867 10.0317 16.765 9.92333 17.3333C9.7 18.3483 9.26167 18.6633 8.23 18.7167C8.09343 18.7337 7.95772 18.757 7.82333 18.7867V21.225C9.7 21.3167 9.95333 21.9783 10.1067 23.94C10.1617 24.655 10.085 25.37 10.1317 26.085C10.1617 26.7617 10.2533 27.4317 10.3917 28.085C10.8233 29.8767 12.57 30.4767 14.6833 30.115V27.9767C14.345 27.9767 14.045 27.985 13.7533 27.9767C13.0367 27.955 12.7683 27.7767 12.7 27.085C12.6067 26.1933 12.63 25.285 12.575 24.385C12.4683 22.7167 12.2833 21.0717 10.6533 20.01C11.4917 19.3933 12.1 18.6567 12.2917 17.68C12.43 16.9967 12.515 16.3117 12.5683 15.6183C12.615 14.9267 12.53 14.2183 12.5917 13.535C12.6917 12.4267 12.7617 11.9733 14.0917 12.0183C14.2917 12.0183 14.4833 11.99 14.7067 11.9733V9.79C14.44 9.79 14.19 9.78333 13.95 9.78ZM26.605 9.795C26.1512 9.78481 25.6974 9.81829 25.25 9.895V12.0183C25.6583 12.0183 25.9733 12.0183 26.2883 12.0267C26.835 12.0333 27.25 12.2433 27.305 12.85C27.3583 13.4033 27.3567 13.965 27.4117 14.5267C27.52 15.6417 27.58 16.7717 27.7733 17.8717C27.9433 18.7783 28.565 19.455 29.3417 20.01C27.98 20.925 27.58 22.2317 27.5117 23.7017C27.4733 24.7083 27.45 25.7233 27.3967 26.7383C27.35 27.6617 27.0267 27.9617 26.0967 27.985C25.835 27.9917 25.58 28.015 25.29 28.0317V30.2067C25.835 30.2067 26.335 30.2383 26.835 30.2067C28.3883 30.115 29.3267 29.3617 29.635 27.8533C29.765 27.0233 29.8417 26.1867 29.865 25.3467C29.9183 24.5783 29.9117 23.8017 29.9883 23.04C30.1033 21.8483 30.65 21.3567 31.8417 21.2783C31.9546 21.2645 32.0658 21.2388 32.1733 21.2017V18.7633C31.9733 18.74 31.8333 18.7183 31.6883 18.71C30.795 18.6717 30.3483 18.3717 30.1267 17.5267C29.9884 16.9846 29.9036 16.4303 29.8733 15.8717C29.8117 14.8417 29.8183 13.8033 29.75 12.7717C29.6167 10.785 28.4267 9.85 26.605 9.795ZM15.1217 18.595C14.7603 18.5946 14.4127 18.7333 14.1508 18.9823C13.8889 19.2313 13.7329 19.5715 13.7152 19.9324C13.6974 20.2933 13.8191 20.6472 14.0553 20.9208C14.2914 21.1943 14.6237 21.3665 14.9833 21.4017H15.075C15.4412 21.4231 15.8009 21.2981 16.075 21.0543C16.3491 20.8106 16.5152 20.4679 16.5367 20.1017V20.025C16.5425 19.652 16.4001 19.292 16.1407 19.0239C15.8814 18.7558 15.5263 18.6016 15.1533 18.595H15.1217ZM19.9733 18.595C19.6167 18.5833 19.27 18.7136 19.0094 18.9574C18.7487 19.2011 18.5955 19.5384 18.5833 19.895C18.5833 19.94 18.5833 19.9783 18.59 20.025C18.59 20.8633 19.16 21.4017 20.0217 21.4017C20.8667 21.4017 21.3983 20.8483 21.3983 19.98C21.39 19.1417 20.8283 18.5867 19.9733 18.595ZM24.9117 18.595C24.5342 18.5883 24.1692 18.7306 23.8959 18.9911C23.6226 19.2516 23.463 19.6093 23.4517 19.9867C23.4517 20.77 24.0817 21.4017 24.8667 21.4017H24.8817C25.59 21.525 26.3033 20.84 26.35 20.0183C26.3883 19.2567 25.6967 18.595 24.9117 18.595Z" fill="#219653"/>
</g>
<defs>
<clipPath id="clip0_3166_1397">
<rect width="40" height="40" fill="white"/>
</clipPath>
</defs>
</svg>
