<svg width="16" height="15" viewBox="0 0 16 15" fill="none" xmlns="http://www.w3.org/2000/svg">
<path d="M16 0.4L15.9952 4.93333C15.9952 5.15425 15.8161 5.33333 15.5952 5.33333H14.67C14.4459 5.33333 14.2656 5.14928 14.2701 4.92525L14.3456 2.88006L14.2883 2.82278L6.54208 10.569C6.41192 10.6992 6.20086 10.6992 6.07067 10.569L5.43097 9.92933C5.30081 9.79917 5.30081 9.58811 5.43097 9.45792L13.1772 1.71169L13.1199 1.65442L11.0747 1.72989C10.8507 1.73444 10.6667 1.55406 10.6667 1.32997V0.404833C10.6667 0.183917 10.8457 0.00483333 11.0667 0.00483333L15.6 0C15.8209 0 16 0.179083 16 0.4ZM11.8754 6.49278L11.2088 7.15944C11.1462 7.22196 11.1111 7.30674 11.1111 7.39514V12.7222C11.1111 12.7664 11.0936 12.8088 11.0623 12.8401C11.031 12.8713 10.9886 12.8889 10.9444 12.8889H1.5C1.4558 12.8889 1.4134 12.8713 1.38215 12.8401C1.35089 12.8088 1.33333 12.7664 1.33333 12.7222V3.27778C1.33333 3.23358 1.35089 3.19118 1.38215 3.15993C1.4134 3.12867 1.4558 3.11111 1.5 3.11111H9.88822C10.1852 3.11111 10.3339 2.75206 10.1239 2.54208L9.45725 1.87542C9.39474 1.81291 9.30996 1.77779 9.22156 1.77778H1.33333C0.596944 1.77778 0 2.37472 0 3.11111V12.8889C0 13.6253 0.596944 14.2222 1.33333 14.2222H11.1111C11.8475 14.2222 12.4444 13.6253 12.4444 12.8889V6.72847C12.4444 6.4315 12.0854 6.28278 11.8754 6.49278Z" fill="black"/>
</svg>
