<svg width="24" height="24" viewBox="0 0 24 24" fill="none" xmlns="http://www.w3.org/2000/svg">
<path d="M0 3.42868C0 2.9551 0.383786 2.57153 0.857143 2.57153H23.1429C23.6143 2.57153 24 2.9551 24 3.42868C24 3.90225 23.6143 4.28582 23.1429 4.28582H0.857143C0.383786 4.28582 0 3.90225 0 3.42868ZM0 12.0001C0 11.5287 0.383786 11.143 0.857143 11.143H23.1429C23.6143 11.143 24 11.5287 24 12.0001C24 12.4715 23.6143 12.8572 23.1429 12.8572H0.857143C0.383786 12.8572 0 12.4715 0 12.0001ZM23.1429 21.4287H0.857143C0.383786 21.4287 0 21.043 0 20.5715C0 20.1001 0.383786 19.7144 0.857143 19.7144H23.1429C23.6143 19.7144 24 20.1001 24 20.5715C24 21.043 23.6143 21.4287 23.1429 21.4287Z" fill="black"/>
</svg>
