<svg width="675" height="380" viewBox="0 0 675 380" fill="none" xmlns="http://www.w3.org/2000/svg">
<g clip-path="url(#clip0_4149_662)">
<g filter="url(#filter0_d_4149_662)">
<path d="M1 4C1 2.34315 2.34315 1 4 1H488C489.657 1 491 2.34315 491 4V352C491 353.657 489.657 355 488 355H4.00001C2.34316 355 1 353.657 1 352V4Z" fill="#F7F9FA"/>
</g>
<path d="M190 60C190 58.3431 191.343 57 193 57H455C456.657 57 458 58.3431 458 60V62C458 63.6569 456.657 65 455 65H193C191.343 65 190 63.6569 190 62V60Z" fill="#A9A8A5"/>
<path d="M190 71C190 69.3431 191.343 68 193 68H455C456.657 68 458 69.3431 458 71V73C458 74.6569 456.657 76 455 76H193C191.343 76 190 74.6569 190 73V71Z" fill="#A9A8A5"/>
<path d="M190 82C190 80.3431 191.343 79 193 79H437C438.657 79 440 80.3431 440 82V84C440 85.6569 438.657 87 437 87H193C191.343 87 190 85.6569 190 84V82Z" fill="#A9A8A5"/>
<path d="M190 104C190 102.343 191.343 101 193 101H366C367.657 101 369 102.343 369 104V106C369 107.657 367.657 109 366 109H193C191.343 109 190 107.657 190 106V104Z" fill="#A9A8A5"/>
<path d="M190 118C190 116.343 191.343 115 193 115H283C284.657 115 286 116.343 286 118V120C286 121.657 284.657 123 283 123H193C191.343 123 190 121.657 190 120V118Z" fill="#A9A8A5"/>
<g filter="url(#filter1_d_4149_662)">
<rect x="291" y="146" width="276" height="10" rx="3" fill="#61AFFE" shape-rendering="crispEdges"/>
</g>
<g filter="url(#filter2_d_4149_662)">
<rect x="291" y="162" width="54" height="10" rx="3" fill="#61AFFE" shape-rendering="crispEdges"/>
</g>
<g filter="url(#filter3_d_4149_662)">
<rect x="291" y="130" width="100" height="10" rx="3" fill="#61AFFE" shape-rendering="crispEdges"/>
</g>
<g filter="url(#filter4_d_4149_662)">
<rect x="328" y="182" width="313" height="10" rx="3" fill="#49CC90" shape-rendering="crispEdges"/>
</g>
<g filter="url(#filter5_d_4149_662)">
<rect x="328" y="200" width="100" height="10" rx="3" fill="#49CC90" shape-rendering="crispEdges"/>
</g>
<g filter="url(#filter6_d_4149_662)">
<rect x="291" y="223" width="276" height="10" rx="3" fill="#50E3C2" shape-rendering="crispEdges"/>
</g>
<g filter="url(#filter7_d_4149_662)">
<rect x="291" y="239" width="100" height="10" rx="3" fill="#50E3C2" shape-rendering="crispEdges"/>
</g>
<g filter="url(#filter8_d_4149_662)">
<rect x="255" y="267" width="228" height="10" rx="3" fill="#FCA130" shape-rendering="crispEdges"/>
</g>
<g filter="url(#filter9_d_4149_662)">
<rect x="255" y="286" width="100" height="10" rx="3" fill="#FCA130" shape-rendering="crispEdges"/>
</g>
<g filter="url(#filter10_d_4149_662)">
<rect x="370" y="286" width="50" height="10" rx="3" fill="#FCA130" shape-rendering="crispEdges"/>
</g>
<g filter="url(#filter11_d_4149_662)">
<rect x="307" y="308" width="218" height="10" rx="3" fill="#F93E3E" shape-rendering="crispEdges"/>
</g>
<g filter="url(#filter12_d_4149_662)">
<rect x="307" y="324" width="88" height="10" rx="3" fill="#F93E3E" shape-rendering="crispEdges"/>
</g>
<g filter="url(#filter13_d_4149_662)">
<rect x="307" y="340" width="61" height="10" rx="3" fill="#F93E3E" shape-rendering="crispEdges"/>
</g>
<g filter="url(#filter14_d_4149_662)">
<rect x="185" y="130" width="80" height="32" rx="3" fill="#61AFFE" shape-rendering="crispEdges"/>
<path d="M218.799 145.568V151.203C218.577 151.47 218.236 151.76 217.773 152.072C217.311 152.378 216.715 152.642 215.986 152.863C215.257 153.085 214.375 153.195 213.34 153.195C212.422 153.195 211.585 153.046 210.83 152.746C210.075 152.44 209.424 151.994 208.877 151.408C208.337 150.822 207.92 150.106 207.627 149.26C207.334 148.407 207.188 147.434 207.188 146.34V145.451C207.188 144.357 207.327 143.384 207.607 142.531C207.894 141.678 208.301 140.959 208.828 140.373C209.355 139.787 209.984 139.341 210.713 139.035C211.442 138.729 212.253 138.576 213.145 138.576C214.382 138.576 215.397 138.778 216.191 139.182C216.986 139.579 217.591 140.132 218.008 140.842C218.431 141.545 218.691 142.352 218.789 143.264H215.947C215.876 142.782 215.739 142.362 215.537 142.004C215.335 141.646 215.046 141.366 214.668 141.164C214.297 140.962 213.815 140.861 213.223 140.861C212.734 140.861 212.298 140.962 211.914 141.164C211.536 141.359 211.217 141.649 210.957 142.033C210.697 142.417 210.498 142.893 210.361 143.459C210.225 144.025 210.156 144.683 210.156 145.432V146.34C210.156 147.082 210.228 147.74 210.371 148.312C210.514 148.879 210.726 149.357 211.006 149.748C211.292 150.132 211.644 150.422 212.061 150.617C212.477 150.812 212.962 150.91 213.516 150.91C213.978 150.91 214.362 150.871 214.668 150.793C214.98 150.715 215.231 150.62 215.42 150.51C215.615 150.393 215.765 150.282 215.869 150.178V147.658H213.193V145.568H218.799ZM230.703 150.715V153H223.135V150.715H230.703ZM224.092 138.781V153H221.162V138.781H224.092ZM229.717 144.572V146.799H223.135V144.572H229.717ZM230.693 138.781V141.076H223.135V138.781H230.693ZM238.965 138.781V153H236.045V138.781H238.965ZM243.34 138.781V141.076H231.738V138.781H243.34Z" fill="black"/>
</g>
<g filter="url(#filter15_d_4149_662)">
<rect x="230" y="180" width="80" height="32" rx="3" fill="#49CC90" shape-rendering="crispEdges"/>
<path d="M251.104 197.932H247.48V195.646H251.104C251.663 195.646 252.119 195.555 252.471 195.373C252.822 195.184 253.079 194.924 253.242 194.592C253.405 194.26 253.486 193.885 253.486 193.469C253.486 193.046 253.405 192.652 253.242 192.287C253.079 191.923 252.822 191.63 252.471 191.408C252.119 191.187 251.663 191.076 251.104 191.076H248.496V203H245.566V188.781H251.104C252.217 188.781 253.171 188.983 253.965 189.387C254.766 189.784 255.378 190.334 255.801 191.037C256.224 191.74 256.436 192.544 256.436 193.449C256.436 194.367 256.224 195.161 255.801 195.832C255.378 196.503 254.766 197.02 253.965 197.385C253.171 197.749 252.217 197.932 251.104 197.932ZM270.137 195.559V196.232C270.137 197.313 269.99 198.283 269.697 199.143C269.404 200.002 268.991 200.734 268.457 201.34C267.923 201.939 267.285 202.398 266.543 202.717C265.807 203.036 264.99 203.195 264.092 203.195C263.2 203.195 262.383 203.036 261.641 202.717C260.905 202.398 260.267 201.939 259.727 201.34C259.186 200.734 258.766 200.002 258.467 199.143C258.174 198.283 258.027 197.313 258.027 196.232V195.559C258.027 194.471 258.174 193.501 258.467 192.648C258.76 191.789 259.173 191.057 259.707 190.451C260.247 189.846 260.885 189.383 261.621 189.064C262.363 188.745 263.18 188.586 264.072 188.586C264.971 188.586 265.788 188.745 266.523 189.064C267.266 189.383 267.904 189.846 268.438 190.451C268.978 191.057 269.395 191.789 269.688 192.648C269.987 193.501 270.137 194.471 270.137 195.559ZM267.178 196.232V195.539C267.178 194.784 267.109 194.12 266.973 193.547C266.836 192.974 266.634 192.492 266.367 192.102C266.1 191.711 265.775 191.418 265.391 191.223C265.007 191.021 264.567 190.92 264.072 190.92C263.577 190.92 263.138 191.021 262.754 191.223C262.376 191.418 262.054 191.711 261.787 192.102C261.527 192.492 261.328 192.974 261.191 193.547C261.055 194.12 260.986 194.784 260.986 195.539V196.232C260.986 196.981 261.055 197.645 261.191 198.225C261.328 198.798 261.53 199.283 261.797 199.68C262.064 200.07 262.389 200.367 262.773 200.568C263.158 200.77 263.597 200.871 264.092 200.871C264.587 200.871 265.026 200.77 265.41 200.568C265.794 200.367 266.117 200.07 266.377 199.68C266.637 199.283 266.836 198.798 266.973 198.225C267.109 197.645 267.178 196.981 267.178 196.232ZM279.648 199.279C279.648 199.025 279.609 198.798 279.531 198.596C279.46 198.387 279.323 198.199 279.121 198.029C278.919 197.854 278.636 197.681 278.271 197.512C277.907 197.342 277.435 197.167 276.855 196.984C276.211 196.776 275.599 196.542 275.02 196.281C274.447 196.021 273.939 195.718 273.496 195.373C273.06 195.021 272.715 194.615 272.461 194.152C272.214 193.69 272.09 193.153 272.09 192.541C272.09 191.949 272.22 191.411 272.48 190.93C272.741 190.441 273.105 190.025 273.574 189.68C274.043 189.328 274.596 189.058 275.234 188.869C275.879 188.68 276.585 188.586 277.354 188.586C278.402 188.586 279.316 188.775 280.098 189.152C280.879 189.53 281.484 190.048 281.914 190.705C282.35 191.363 282.568 192.115 282.568 192.961H279.658C279.658 192.544 279.57 192.18 279.395 191.867C279.225 191.548 278.965 191.298 278.613 191.115C278.268 190.933 277.832 190.842 277.305 190.842C276.797 190.842 276.374 190.92 276.035 191.076C275.697 191.226 275.443 191.431 275.273 191.691C275.104 191.945 275.02 192.232 275.02 192.551C275.02 192.792 275.078 193.01 275.195 193.205C275.319 193.4 275.501 193.583 275.742 193.752C275.983 193.921 276.279 194.081 276.631 194.23C276.982 194.38 277.389 194.527 277.852 194.67C278.626 194.904 279.307 195.168 279.893 195.461C280.485 195.754 280.98 196.083 281.377 196.447C281.774 196.812 282.074 197.225 282.275 197.688C282.477 198.15 282.578 198.674 282.578 199.26C282.578 199.878 282.458 200.432 282.217 200.92C281.976 201.408 281.628 201.822 281.172 202.16C280.716 202.499 280.173 202.756 279.541 202.932C278.91 203.107 278.203 203.195 277.422 203.195C276.719 203.195 276.025 203.104 275.342 202.922C274.658 202.733 274.036 202.45 273.477 202.072C272.923 201.695 272.48 201.213 272.148 200.627C271.816 200.041 271.65 199.348 271.65 198.547H274.59C274.59 198.99 274.658 199.364 274.795 199.67C274.932 199.976 275.124 200.223 275.371 200.412C275.625 200.601 275.924 200.738 276.27 200.822C276.621 200.907 277.005 200.949 277.422 200.949C277.93 200.949 278.346 200.878 278.672 200.734C279.004 200.591 279.248 200.393 279.404 200.139C279.567 199.885 279.648 199.598 279.648 199.279ZM290.928 188.781V203H288.008V188.781H290.928ZM295.303 188.781V191.076H283.701V188.781H295.303Z" fill="black"/>
</g>
<g filter="url(#filter16_d_4149_662)">
<rect x="186" y="223" width="80" height="32" rx="3" fill="#50E3C2" shape-rendering="crispEdges"/>
<path d="M201.391 240.932H197.768V238.646H201.391C201.951 238.646 202.406 238.555 202.758 238.373C203.109 238.184 203.367 237.924 203.529 237.592C203.692 237.26 203.773 236.885 203.773 236.469C203.773 236.046 203.692 235.652 203.529 235.287C203.367 234.923 203.109 234.63 202.758 234.408C202.406 234.187 201.951 234.076 201.391 234.076H198.783V246H195.854V231.781H201.391C202.504 231.781 203.458 231.983 204.252 232.387C205.053 232.784 205.665 233.334 206.088 234.037C206.511 234.74 206.723 235.544 206.723 236.449C206.723 237.367 206.511 238.161 206.088 238.832C205.665 239.503 205.053 240.02 204.252 240.385C203.458 240.749 202.504 240.932 201.391 240.932ZM212.904 234.213L209.037 246H205.922L211.205 231.781H213.188L212.904 234.213ZM216.117 246L212.24 234.213L211.928 231.781H213.93L219.242 246H216.117ZM215.941 240.707V243.002H208.432V240.707H215.941ZM225.707 231.781V246H222.787V231.781H225.707ZM230.082 231.781V234.076H218.48V231.781H230.082ZM239.721 241.283H242.641C242.582 242.24 242.318 243.09 241.85 243.832C241.387 244.574 240.74 245.154 239.906 245.57C239.079 245.987 238.083 246.195 236.918 246.195C236.007 246.195 235.189 246.039 234.467 245.727C233.744 245.408 233.126 244.952 232.611 244.359C232.104 243.767 231.716 243.051 231.449 242.211C231.182 241.371 231.049 240.43 231.049 239.389V238.402C231.049 237.361 231.186 236.42 231.459 235.58C231.739 234.734 232.136 234.014 232.65 233.422C233.171 232.829 233.793 232.374 234.516 232.055C235.238 231.736 236.046 231.576 236.938 231.576C238.122 231.576 239.122 231.791 239.936 232.221C240.756 232.65 241.391 233.243 241.84 233.998C242.296 234.753 242.569 235.613 242.66 236.576H239.73C239.698 236.003 239.584 235.518 239.389 235.121C239.193 234.717 238.897 234.415 238.5 234.213C238.109 234.005 237.589 233.9 236.938 233.9C236.449 233.9 236.023 233.992 235.658 234.174C235.294 234.356 234.988 234.633 234.74 235.004C234.493 235.375 234.307 235.844 234.184 236.41C234.066 236.97 234.008 237.628 234.008 238.383V239.389C234.008 240.124 234.063 240.772 234.174 241.332C234.285 241.885 234.454 242.354 234.682 242.738C234.916 243.116 235.215 243.402 235.58 243.598C235.951 243.786 236.397 243.881 236.918 243.881C237.53 243.881 238.035 243.783 238.432 243.588C238.829 243.393 239.132 243.103 239.34 242.719C239.555 242.335 239.682 241.856 239.721 241.283ZM254.047 237.572V239.857H246.625V237.572H254.047ZM247.494 231.781V246H244.564V231.781H247.494ZM256.137 231.781V246H253.217V231.781H256.137Z" fill="black"/>
</g>
<g filter="url(#filter17_d_4149_662)">
<rect x="155" y="266" width="80" height="32" rx="3" fill="#FCA130" shape-rendering="crispEdges"/>
<path d="M182.568 283.932H178.945V281.646H182.568C183.128 281.646 183.584 281.555 183.936 281.373C184.287 281.184 184.544 280.924 184.707 280.592C184.87 280.26 184.951 279.885 184.951 279.469C184.951 279.046 184.87 278.652 184.707 278.287C184.544 277.923 184.287 277.63 183.936 277.408C183.584 277.187 183.128 277.076 182.568 277.076H179.961V289H177.031V274.781H182.568C183.682 274.781 184.635 274.983 185.43 275.387C186.23 275.784 186.842 276.334 187.266 277.037C187.689 277.74 187.9 278.544 187.9 279.449C187.9 280.367 187.689 281.161 187.266 281.832C186.842 282.503 186.23 283.02 185.43 283.385C184.635 283.749 183.682 283.932 182.568 283.932ZM197.773 274.781H200.693V284.176C200.693 285.27 200.459 286.191 199.99 286.939C199.528 287.688 198.887 288.251 198.066 288.629C197.253 289.007 196.315 289.195 195.254 289.195C194.193 289.195 193.249 289.007 192.422 288.629C191.602 288.251 190.957 287.688 190.488 286.939C190.026 286.191 189.795 285.27 189.795 284.176V274.781H192.725V284.176C192.725 284.814 192.826 285.335 193.027 285.738C193.229 286.142 193.519 286.438 193.896 286.627C194.281 286.816 194.733 286.91 195.254 286.91C195.788 286.91 196.24 286.816 196.611 286.627C196.989 286.438 197.275 286.142 197.471 285.738C197.673 285.335 197.773 284.814 197.773 284.176V274.781ZM209.463 274.781V289H206.543V274.781H209.463ZM213.838 274.781V277.076H202.236V274.781H213.838Z" fill="black"/>
</g>
<g filter="url(#filter18_d_4149_662)">
<rect x="205" y="314" width="80" height="32" rx="3" fill="#F93E3E" shape-rendering="crispEdges"/>
<path d="M215.547 337H212.451L212.471 334.715H215.547C216.315 334.715 216.963 334.542 217.49 334.197C218.018 333.846 218.415 333.335 218.682 332.664C218.955 331.993 219.092 331.183 219.092 330.232V329.539C219.092 328.81 219.014 328.169 218.857 327.615C218.708 327.062 218.483 326.596 218.184 326.219C217.884 325.841 217.516 325.558 217.08 325.369C216.644 325.174 216.143 325.076 215.576 325.076H212.393V322.781H215.576C216.527 322.781 217.396 322.944 218.184 323.27C218.978 323.589 219.665 324.048 220.244 324.646C220.824 325.245 221.27 325.962 221.582 326.795C221.901 327.622 222.061 328.543 222.061 329.559V330.232C222.061 331.242 221.901 332.163 221.582 332.996C221.27 333.829 220.824 334.546 220.244 335.145C219.671 335.737 218.984 336.196 218.184 336.521C217.389 336.84 216.51 337 215.547 337ZM214.111 322.781V337H211.182V322.781H214.111ZM233.73 334.715V337H226.162V334.715H233.73ZM227.119 322.781V337H224.189V322.781H227.119ZM232.744 328.572V330.799H226.162V328.572H232.744ZM233.721 322.781V325.076H226.162V322.781H233.721ZM244.58 334.715V337H237.422V334.715H244.58ZM238.369 322.781V337H235.439V322.781H238.369ZM255.801 334.715V337H248.232V334.715H255.801ZM249.189 322.781V337H246.26V322.781H249.189ZM254.814 328.572V330.799H248.232V328.572H254.814ZM255.791 322.781V325.076H248.232V322.781H255.791ZM264.062 322.781V337H261.143V322.781H264.062ZM268.438 322.781V325.076H256.836V322.781H268.438ZM279.648 334.715V337H272.08V334.715H279.648ZM273.037 322.781V337H270.107V322.781H273.037ZM278.662 328.572V330.799H272.08V328.572H278.662ZM279.639 322.781V325.076H272.08V322.781H279.639Z" fill="black"/>
</g>
<g filter="url(#filter19_d_4149_662)">
<path d="M18 137C18 135.343 19.3431 134 21 134H142C143.657 134 145 135.343 145 137V148C145 149.657 143.657 151 142 151H21C19.3431 151 18 149.657 18 148V137Z" fill="white"/>
<path d="M24 142C24 140.343 25.3431 139 27 139H102C103.657 139 105 140.343 105 142V144C105 145.657 103.657 147 102 147H27C25.3431 147 24 145.657 24 144V142Z" fill="#A9A8A5"/>
</g>
<g filter="url(#filter20_d_4149_662)">
<path d="M18 161C18 159.343 19.3431 158 21 158H142C143.657 158 145 159.343 145 161V172C145 173.657 143.657 175 142 175H21C19.3431 175 18 173.657 18 172V161Z" fill="white"/>
<path d="M24 166C24 164.343 25.3431 163 27 163H73C74.6569 163 76 164.343 76 166V168C76 169.657 74.6569 171 73 171H27C25.3431 171 24 169.657 24 168V166Z" fill="#A9A8A5"/>
</g>
<g filter="url(#filter21_d_4149_662)">
<path d="M18 185C18 183.343 19.3431 182 21 182H142C143.657 182 145 183.343 145 185V196C145 197.657 143.657 199 142 199H21C19.3431 199 18 197.657 18 196V185Z" fill="white"/>
<path d="M24 190C24 188.343 25.3431 187 27 187H122C123.657 187 125 188.343 125 190V192C125 193.657 123.657 195 122 195H27C25.3431 195 24 193.657 24 192V190Z" fill="#A9A8A5"/>
</g>
<g filter="url(#filter22_d_4149_662)">
<path d="M18 209C18 207.343 19.3431 206 21 206H142C143.657 206 145 207.343 145 209V220C145 221.657 143.657 223 142 223H21C19.3431 223 18 221.657 18 220V209Z" fill="white"/>
<path d="M24 214C24 212.343 25.3431 211 27 211H122C123.657 211 125 212.343 125 214V216C125 217.657 123.657 219 122 219H27C25.3431 219 24 217.657 24 216V214Z" fill="#A9A8A5"/>
</g>
<g filter="url(#filter23_d_4149_662)">
<path d="M18 233C18 231.343 19.3431 230 21 230H142C143.657 230 145 231.343 145 233V244C145 245.657 143.657 247 142 247H21C19.3431 247 18 245.657 18 244V233Z" fill="white"/>
<path d="M24 238C24 236.343 25.3431 235 27 235H102C103.657 235 105 236.343 105 238V240C105 241.657 103.657 243 102 243H27C25.3431 243 24 241.657 24 240V238Z" fill="#A9A8A5"/>
</g>
<g filter="url(#filter24_d_4149_662)">
<path d="M18 257C18 255.343 19.3431 254 21 254H142C143.657 254 145 255.343 145 257V268C145 269.657 143.657 271 142 271H21C19.3431 271 18 269.657 18 268V257Z" fill="white"/>
<path d="M24 262C24 260.343 25.3431 259 27 259H102C103.657 259 105 260.343 105 262V264C105 265.657 103.657 267 102 267H27C25.3431 267 24 265.657 24 264V262Z" fill="#A9A8A5"/>
</g>
<g filter="url(#filter25_d_4149_662)">
<path d="M18 281C18 279.343 19.3431 278 21 278H142C143.657 278 145 279.343 145 281V292C145 293.657 143.657 295 142 295H21C19.3431 295 18 293.657 18 292V281Z" fill="white"/>
<path d="M24 286C24 284.343 25.3431 283 27 283H122C123.657 283 125 284.343 125 286V288C125 289.657 123.657 291 122 291H27C25.3431 291 24 289.657 24 288V286Z" fill="#A9A8A5"/>
</g>
<g filter="url(#filter26_d_4149_662)">
<path d="M18 305C18 303.343 19.3431 302 21 302H142C143.657 302 145 303.343 145 305V316C145 317.657 143.657 319 142 319H21C19.3431 319 18 317.657 18 316V305Z" fill="white"/>
<path d="M24 310C24 308.343 25.3431 307 27 307H102C103.657 307 105 308.343 105 310V312C105 313.657 103.657 315 102 315H27C25.3431 315 24 313.657 24 312V310Z" fill="#A9A8A5"/>
</g>
<g filter="url(#filter27_d_4149_662)">
<path d="M18 329C18 327.343 19.3431 326 21 326H142C143.657 326 145 327.343 145 329V340C145 341.657 143.657 343 142 343H21C19.3431 343 18 341.657 18 340V329Z" fill="white"/>
<path d="M24 334C24 332.343 25.3431 331 27 331H122C123.657 331 125 332.343 125 334V336C125 337.657 123.657 339 122 339H27C25.3431 339 24 337.657 24 336V334Z" fill="#A9A8A5"/>
</g>
<path d="M19 61C19 59.3431 20.3431 58 22 58H140C141.657 58 143 59.3431 143 61V70C143 71.6569 141.657 73 140 73H22C20.3431 73 19 71.6569 19 70V61Z" fill="#CC092F"/>
<g filter="url(#filter28_d_4149_662)">
<path d="M18 113C18 111.343 19.3431 110 21 110H142C143.657 110 145 111.343 145 113V124C145 125.657 143.657 127 142 127H21C19.3431 127 18 125.657 18 124V113Z" fill="white"/>
<path d="M24 118C24 116.343 25.3431 115 27 115H122C123.657 115 125 116.343 125 118V120C125 121.657 123.657 123 122 123H27C25.3431 123 24 121.657 24 120V118Z" fill="#A9A8A5"/>
</g>
<g filter="url(#filter29_d_4149_662)">
<path d="M18 89C18 87.3431 19.3431 86 21 86H142C143.657 86 145 87.3431 145 89V100C145 101.657 143.657 103 142 103H21C19.3431 103 18 101.657 18 100V89Z" fill="white"/>
<path d="M24 94C24 92.3431 25.3431 91 27 91H122C123.657 91 125 92.3431 125 94V96C125 97.6569 123.657 99 122 99H27C25.3431 99 24 97.6569 24 96V94Z" fill="#A9A8A5"/>
</g>
<g clip-path="url(#clip1_4149_662)">
<path d="M41.6846 36.6224H42.323L44.3574 39.6705L46.3919 36.6224H47.0303V42.2084H46.4007V37.6834L44.3662 40.6755H44.3346L42.3002 37.6905V42.2066H41.6863V36.6206L41.6846 36.6224Z" fill="black"/>
<path d="M50.6538 36.5837H51.2449L53.7897 42.2101H53.111L52.4568 40.7333H49.4156L48.7526 42.2101H48.1055L50.6521 36.5837H50.6538ZM52.2095 40.1581L50.9397 37.3168L49.6629 40.1581H52.2095Z" fill="black"/>
<path d="M54.9229 36.6223H55.5525V42.2083H54.9229V36.6223Z" fill="black"/>
<path d="M57.1641 36.6223H57.7551L61.2751 41.0999V36.6223H61.8889V42.2083H61.3856L57.7779 37.6273V42.2083H57.1641V36.6223Z" fill="black"/>
<path d="M63.4443 36.6223H67.4589V37.2046H64.0757V39.2005H67.1011V39.7757H64.0757V42.2101H63.4461V36.6241L63.4443 36.6223Z" fill="black"/>
<path d="M68.6553 36.6224H71.058C71.7438 36.6224 72.2945 36.8293 72.6453 37.1801C72.9171 37.4519 73.0767 37.843 73.0767 38.2815V38.2973C73.0767 39.2233 72.4383 39.7653 71.5614 39.9249L73.2767 42.2066H72.5032L70.8827 40.0353H69.2867V42.2066H68.657V36.6206L68.6553 36.6224ZM71.0019 39.4706C71.8403 39.4706 72.4383 39.0392 72.4383 38.3218V38.3061C72.4383 37.6203 71.9122 37.2046 71.0107 37.2046H69.2867V39.4706H71.0019Z" fill="black"/>
<path d="M76.4685 36.5837H77.0595L79.6061 42.2101H78.9274L78.2732 40.7333H75.232L74.569 42.2101H73.9219L76.4667 36.5837H76.4685ZM78.0241 40.1581L76.7561 37.3168L75.4793 40.1581H78.0241Z" fill="black"/>
<path d="M80.6816 36.6224H81.32L83.3545 39.6705L85.389 36.6224H86.0274V42.2084H85.3977V37.6834L83.3633 40.6755H83.3317L81.2972 37.6905V42.2066H80.6834V36.6206L80.6816 36.6224Z" fill="black"/>
<path d="M87.585 36.6223H91.6223V37.1976H88.2146V39.1058H91.2628V39.681H88.2146V41.6366H91.6627V42.2118H87.585V36.6258V36.6223Z" fill="black"/>
<path d="M94.9102 41.3946L95.3013 40.9316C95.8835 41.4578 96.443 41.7209 97.2165 41.7209C97.9899 41.7209 98.4617 41.321 98.4617 40.7703V40.7545C98.4617 40.2354 98.1828 39.9407 97.0095 39.6934C95.7239 39.4146 95.1346 38.9989 95.1346 38.0816V38.0658C95.1346 37.1889 95.9081 36.5417 96.9692 36.5417C97.783 36.5417 98.3652 36.7733 98.9317 37.2275L98.5652 37.7151C98.046 37.2924 97.5269 37.1082 96.9534 37.1082C96.2273 37.1082 95.7643 37.5081 95.7643 38.0097V38.0255C95.7643 38.5517 96.0519 38.8481 97.2814 39.1111C98.5266 39.383 99.1001 39.8372 99.1001 40.6914V40.7071C99.1001 41.6647 98.3021 42.2874 97.1919 42.2874C96.3062 42.2874 95.5801 41.9927 94.9102 41.3929V41.3946Z" fill="black"/>
<path d="M100.112 39.432V39.4162C100.112 37.8763 101.27 36.5276 102.969 36.5276C104.669 36.5276 105.811 37.8605 105.811 39.4004V39.4162C105.811 40.9561 104.653 42.3048 102.954 42.3048C101.254 42.3048 100.112 40.9718 100.112 39.432ZM105.156 39.432V39.4162C105.156 38.1481 104.23 37.1099 102.954 37.1099C101.677 37.1099 100.766 38.1306 100.766 39.4004V39.4162C100.766 40.686 101.693 41.7225 102.969 41.7225C104.246 41.7225 105.156 40.7017 105.156 39.432Z" fill="black"/>
<path d="M107.119 36.6223H111.134V37.2046H107.751V39.2005H110.776V39.7757H107.751V42.2101H107.121V36.6241L107.119 36.6223Z" fill="black"/>
<path d="M113.807 37.2046H111.932V36.6223H116.322V37.2046H114.447V42.2083H113.808V37.2046H113.807Z" fill="black"/>
<path d="M117.046 36.6222H117.732L119.328 41.2752L120.861 36.6064H121.38L122.913 41.2752L124.509 36.6222H125.171L123.176 42.2486H122.641L121.108 37.7166L119.568 42.2486H119.042L117.046 36.6222Z" fill="black"/>
<path d="M127.635 36.5837H128.227L130.773 42.2101H130.094L129.44 40.7333H126.399L125.736 42.2101H125.089L127.634 36.5837H127.635ZM129.191 40.1581L127.923 37.3168L126.646 40.1581H129.191Z" fill="black"/>
<path d="M131.85 36.6224H134.252C134.938 36.6224 135.489 36.8293 135.84 37.1801C136.111 37.4519 136.271 37.843 136.271 38.2815V38.2973C136.271 39.2233 135.633 39.7653 134.754 39.9249L136.469 42.2066H135.696L134.075 40.0353H132.479V42.2066H131.85V36.6206V36.6224ZM134.196 39.4706C135.035 39.4706 135.633 39.0392 135.633 38.3218V38.3061C135.633 37.6203 135.107 37.2046 134.205 37.2046H132.481V39.4706H134.196Z" fill="black"/>
<path d="M137.596 36.6223H141.633V37.1976H138.225V39.1058H141.274V39.681H138.225V41.6366H141.673V42.2118H137.596V36.6258V36.6223Z" fill="black"/>
<path d="M144.739 20.373C144.043 20.373 143.478 20.9395 143.478 21.6358C143.478 22.3321 144.044 22.8968 144.739 22.8968C145.434 22.8968 146 22.3303 146 21.6358C146 20.9413 145.434 20.373 144.739 20.373ZM144.739 22.6495C144.181 22.6495 143.725 22.1953 143.725 21.6358C143.725 21.0763 144.18 20.6221 144.739 20.6221C145.298 20.6221 145.753 21.0763 145.753 21.6358C145.753 22.1953 145.298 22.6495 144.739 22.6495ZM145.258 21.4183C145.255 21.1974 145.102 21.036 144.853 21.0395L144.295 21.0465L144.311 22.2409L144.565 22.2374L144.56 21.813H144.746L144.986 22.2321L145.277 22.2286L145.002 21.7779C145.13 21.7463 145.262 21.6306 145.258 21.4201V21.4183ZM144.821 21.5867L144.555 21.5902L144.551 21.2675L144.818 21.264C144.92 21.264 144.997 21.3219 144.999 21.4236C144.999 21.5236 144.923 21.585 144.821 21.5867ZM122.227 20.3958C118.877 20.3958 116.16 23.1126 116.16 26.4624C116.16 29.8123 118.877 32.529 122.227 32.529C125.576 32.529 128.293 29.814 128.293 26.4624C128.293 23.1108 125.578 20.3958 122.227 20.3958ZM122.227 30.1508C120.19 30.1508 118.538 28.4986 118.538 26.4624C118.538 24.4262 120.19 22.7741 122.227 22.7741C124.263 22.7741 125.915 24.4244 125.915 26.4624C125.915 28.5004 124.263 30.1508 122.227 30.1508ZM48.9052 26.2484C49.9926 26.0239 50.8888 25.0576 50.8888 23.6089C50.8888 22.0725 49.7681 20.6747 47.5775 20.6747H41.5215V32.1835H47.7669C49.9575 32.1835 51.1133 30.8032 51.1133 29.0774C51.1133 27.6287 50.1294 26.4379 48.9052 26.2484ZM43.9716 22.7811H47.0426C47.8704 22.7811 48.3878 23.316 48.3878 24.0403C48.3878 24.7647 47.8704 25.2821 47.0426 25.2821H43.9716V22.7811ZM47.1285 30.0613H43.9716V27.3884H47.1285C48.0949 27.3884 48.6123 28.0093 48.6123 28.7336C48.6123 29.5615 48.0598 30.0631 47.1285 30.0631V30.0613ZM62.5115 24.3876C62.5115 22.2479 61.0453 20.6782 58.6478 20.6782H53.2653V32.1835H55.7154V28.0952H57.5096L59.7685 32.1835H62.5799L59.9913 27.8006C61.233 27.5077 62.5098 26.4203 62.5098 24.3841L62.5115 24.3876ZM58.283 25.9363H55.7119V22.8337H58.283C59.2669 22.8337 60.0088 23.4212 60.0088 24.3859C60.0088 25.3505 59.2669 25.938 58.283 25.938V25.9363ZM81.3917 20.6765L76.9405 32.1835H79.7343L80.4587 30.2349H85.3923L86.0991 32.1835H88.8947L84.461 20.6765H81.39H81.3917ZM81.1339 28.0777L82.9281 23.1266L84.7223 28.0777H81.1339ZM95.5505 20.6765H91.0133V32.1835H95.5505C99.1565 32.1835 101.657 29.907 101.657 26.4396C101.657 22.9723 99.1565 20.6765 95.5505 20.6765ZM95.5505 30.0262H93.4635V22.8337H95.5505C97.9147 22.8337 99.1565 24.4034 99.1565 26.4396C99.1565 28.4758 97.8288 30.028 95.5505 30.028V30.0262ZM138.771 20.6747L135.754 25.5539L132.736 20.6747H130.028V32.1835H132.478V24.6612L135.116 28.6723C135.417 29.1318 136.089 29.1318 136.391 28.6723L139.028 24.6612V32.1835H141.479V20.6747H138.771ZM70.2793 20.3923C66.9277 20.3923 64.2128 23.1091 64.2128 26.4589C64.2128 29.8088 66.9277 32.5255 70.2793 32.5255C73.6309 32.5255 76.3459 29.8105 76.3459 26.4589C76.3459 23.1073 73.6292 20.3923 70.2793 20.3923ZM70.2793 30.1472C68.2431 30.1472 66.591 28.4951 66.591 26.4589C66.591 24.4227 68.2431 22.7706 70.2793 22.7706C72.3156 22.7706 73.9677 24.4209 73.9677 26.4589C73.9677 28.4969 72.3156 30.1472 70.2793 30.1472ZM112.684 28.2443C112.054 29.3791 110.846 30.1472 109.457 30.1472C107.421 30.1472 105.768 28.4969 105.768 26.4589C105.768 24.4209 107.421 22.7706 109.457 22.7706C110.835 22.7706 112.033 23.5282 112.666 24.6472L114.387 22.9267C113.285 21.3938 111.488 20.3923 109.457 20.3923C106.105 20.3923 103.39 23.1091 103.39 26.4589C103.39 29.8088 106.105 32.5255 109.457 32.5255C111.5 32.5255 113.307 31.5135 114.406 29.9648L112.684 28.2426V28.2443Z" fill="black"/>
<path d="M28.5448 18C33.2644 18 37.0895 21.8251 37.0895 26.5448C37.0895 27.4462 36.9492 28.3144 36.6914 29.1282C36.4914 29.0317 36.288 28.9388 36.074 28.8528C35.0971 28.4635 34.2009 28.5932 33.3047 29.1369C33.3047 29.1369 32.9785 29.3369 32.8803 29.3983C32.4628 29.6596 32.0682 29.9086 31.6894 29.9086C31.3106 29.9086 30.9721 29.8122 30.8212 29.1124C30.5862 28.0215 30.0127 25.3416 29.7637 24.0139C29.6164 23.2335 29.5374 22.8126 29.4532 22.5267C29.3059 22.0251 29.0358 21.7515 28.6535 21.7076C28.6535 21.7076 28.5939 21.6989 28.5448 21.6989C28.4956 21.6989 28.4308 21.7076 28.4308 21.7076C28.0502 21.7532 27.7836 22.0268 27.6363 22.5267C27.5521 22.8126 27.4714 23.2317 27.3258 24.0139C27.0768 25.3416 26.5033 28.0215 26.2683 29.1124C26.1174 29.8122 25.7614 29.9086 25.4001 29.9086C25.0388 29.9086 24.6267 29.6596 24.2092 29.3983C24.111 29.3369 23.7848 29.1369 23.7848 29.1369C22.8886 28.5932 21.9924 28.4635 21.0155 28.8528C20.8015 28.9388 20.5981 29.0317 20.3981 29.1282C20.1403 28.3126 20 27.4445 20 26.5448C20 21.8251 23.8251 18 28.5448 18ZM34.5078 30.0875C34.1851 30.1945 33.8993 30.3874 33.6134 30.5663C33.0749 30.9048 32.4646 31.2889 31.6894 31.2889C30.5389 31.2889 29.7304 30.6014 29.4725 29.4035C29.2726 28.4757 28.543 24.9733 28.543 24.9733C28.2589 26.4027 27.8151 28.4757 27.6152 29.4035C27.3574 30.6014 26.5489 31.2889 25.3983 31.2889C24.6231 31.2889 24.0128 30.9048 23.4744 30.5663C23.1885 30.3874 22.9026 30.1963 22.5799 30.0875C22.2484 29.977 21.9064 29.9823 21.5732 30.0805C21.3382 30.1489 21.1154 30.2471 20.8962 30.3559C22.2958 33.162 25.13 35.0895 28.4799 35.0895C31.8297 35.0895 34.7902 33.162 36.1898 30.3559C35.9723 30.2489 35.7478 30.1507 35.5128 30.0805C35.1778 29.9823 34.8376 29.977 34.5061 30.0875" fill="#CC092F"/>
<path d="M36.0722 28.8529C35.0953 28.4636 34.2008 28.5934 33.3029 29.137C33.3029 29.137 32.9767 29.337 32.8784 29.3984C32.461 29.6597 32.0664 29.9087 31.6876 29.9087C31.3088 29.9087 30.9703 29.8123 30.8194 29.1125C30.5844 28.0216 30.0127 25.3417 29.7619 24.0141C29.6145 23.2336 29.5339 22.8127 29.4497 22.5268C29.3023 22.0252 29.0323 21.7516 28.6499 21.7077C28.6499 21.7077 28.5903 21.699 28.5412 21.699C28.4921 21.699 28.4272 21.7077 28.4272 21.7077C28.0483 21.7533 27.78 22.0269 27.6344 22.5268C27.5503 22.8127 27.4696 23.2318 27.3223 24.0141C27.0732 25.3417 26.4997 28.0216 26.2647 29.1125C26.1139 29.8123 25.7596 29.9087 25.3965 29.9087C25.0335 29.9087 24.6231 29.6597 24.2057 29.3984C24.1074 29.337 23.7812 29.137 23.7812 29.137C22.885 28.5934 21.9906 28.4636 21.0137 28.8529C20.8032 28.9371 20.6015 29.0283 20.4033 29.1248C20.5384 29.5492 20.7067 29.9578 20.9032 30.3507C21.1189 30.2455 21.3399 30.149 21.5714 30.0806C21.9046 29.9824 22.2466 29.9771 22.5781 30.0876C22.9008 30.1964 23.1867 30.3875 23.4726 30.5664C24.011 30.9049 24.6213 31.2873 25.3983 31.2873C26.5488 31.2873 27.3556 30.6015 27.6134 29.4036C27.8133 28.4758 28.2571 26.4028 28.5412 24.9734C28.5412 24.9734 29.2708 28.4758 29.4707 29.4036C29.7285 30.6015 30.5371 31.2873 31.6876 31.2873C32.4645 31.2873 33.0731 30.9049 33.6133 30.5664C33.8992 30.3875 34.1851 30.1964 34.5078 30.0876C34.8392 29.9771 35.1812 29.9824 35.5145 30.0806C35.746 30.149 35.967 30.2455 36.1827 30.3507C36.3791 29.9596 36.5475 29.5492 36.6825 29.1248C36.4844 29.0283 36.2827 28.9371 36.0722 28.8529Z" fill="white"/>
</g>
<g filter="url(#filter30_d_4149_662)">
<path d="M203.504 22.5391L196.57 45H189.207L199.656 16.5625H204.324L203.504 22.5391ZM209.246 45L202.293 22.5391L201.395 16.5625H206.121L216.629 45H209.246ZM208.973 34.3945V39.6875H194.383V34.3945H208.973ZM230.066 35.3516H222.996V30.0586H230.066C231.03 30.0586 231.811 29.8958 232.41 29.5703C233.009 29.2448 233.445 28.7956 233.719 28.2227C234.005 27.6367 234.148 26.9792 234.148 26.25C234.148 25.4688 234.005 24.7461 233.719 24.082C233.445 23.418 233.009 22.8841 232.41 22.4805C231.811 22.0638 231.03 21.8555 230.066 21.8555H225.574V45H218.719V16.5625H230.066C232.345 16.5625 234.305 16.9792 235.945 17.8125C237.599 18.6458 238.868 19.7917 239.754 21.25C240.639 22.6953 241.082 24.349 241.082 26.2109C241.082 28.0469 240.639 29.6484 239.754 31.0156C238.868 32.3828 237.599 33.4505 235.945 34.2188C234.305 34.974 232.345 35.3516 230.066 35.3516ZM252.059 16.5625V45H245.223V16.5625H252.059Z" fill="#CC092F"/>
</g>
</g>
<defs>
<filter id="filter0_d_4149_662" x="-3" y="1" width="498" height="362" filterUnits="userSpaceOnUse" color-interpolation-filters="sRGB">
<feFlood flood-opacity="0" result="BackgroundImageFix"/>
<feColorMatrix in="SourceAlpha" type="matrix" values="0 0 0 0 0 0 0 0 0 0 0 0 0 0 0 0 0 0 127 0" result="hardAlpha"/>
<feOffset dy="4"/>
<feGaussianBlur stdDeviation="2"/>
<feComposite in2="hardAlpha" operator="out"/>
<feColorMatrix type="matrix" values="0 0 0 0 0 0 0 0 0 0 0 0 0 0 0 0 0 0 0.25 0"/>
<feBlend mode="normal" in2="BackgroundImageFix" result="effect1_dropShadow_4149_662"/>
<feBlend mode="normal" in="SourceGraphic" in2="effect1_dropShadow_4149_662" result="shape"/>
</filter>
<filter id="filter1_d_4149_662" x="287" y="146" width="284" height="18" filterUnits="userSpaceOnUse" color-interpolation-filters="sRGB">
<feFlood flood-opacity="0" result="BackgroundImageFix"/>
<feColorMatrix in="SourceAlpha" type="matrix" values="0 0 0 0 0 0 0 0 0 0 0 0 0 0 0 0 0 0 127 0" result="hardAlpha"/>
<feOffset dy="4"/>
<feGaussianBlur stdDeviation="2"/>
<feComposite in2="hardAlpha" operator="out"/>
<feColorMatrix type="matrix" values="0 0 0 0 0 0 0 0 0 0 0 0 0 0 0 0 0 0 0.25 0"/>
<feBlend mode="normal" in2="BackgroundImageFix" result="effect1_dropShadow_4149_662"/>
<feBlend mode="normal" in="SourceGraphic" in2="effect1_dropShadow_4149_662" result="shape"/>
</filter>
<filter id="filter2_d_4149_662" x="287" y="162" width="62" height="18" filterUnits="userSpaceOnUse" color-interpolation-filters="sRGB">
<feFlood flood-opacity="0" result="BackgroundImageFix"/>
<feColorMatrix in="SourceAlpha" type="matrix" values="0 0 0 0 0 0 0 0 0 0 0 0 0 0 0 0 0 0 127 0" result="hardAlpha"/>
<feOffset dy="4"/>
<feGaussianBlur stdDeviation="2"/>
<feComposite in2="hardAlpha" operator="out"/>
<feColorMatrix type="matrix" values="0 0 0 0 0 0 0 0 0 0 0 0 0 0 0 0 0 0 0.25 0"/>
<feBlend mode="normal" in2="BackgroundImageFix" result="effect1_dropShadow_4149_662"/>
<feBlend mode="normal" in="SourceGraphic" in2="effect1_dropShadow_4149_662" result="shape"/>
</filter>
<filter id="filter3_d_4149_662" x="287" y="130" width="108" height="18" filterUnits="userSpaceOnUse" color-interpolation-filters="sRGB">
<feFlood flood-opacity="0" result="BackgroundImageFix"/>
<feColorMatrix in="SourceAlpha" type="matrix" values="0 0 0 0 0 0 0 0 0 0 0 0 0 0 0 0 0 0 127 0" result="hardAlpha"/>
<feOffset dy="4"/>
<feGaussianBlur stdDeviation="2"/>
<feComposite in2="hardAlpha" operator="out"/>
<feColorMatrix type="matrix" values="0 0 0 0 0 0 0 0 0 0 0 0 0 0 0 0 0 0 0.25 0"/>
<feBlend mode="normal" in2="BackgroundImageFix" result="effect1_dropShadow_4149_662"/>
<feBlend mode="normal" in="SourceGraphic" in2="effect1_dropShadow_4149_662" result="shape"/>
</filter>
<filter id="filter4_d_4149_662" x="324" y="182" width="321" height="18" filterUnits="userSpaceOnUse" color-interpolation-filters="sRGB">
<feFlood flood-opacity="0" result="BackgroundImageFix"/>
<feColorMatrix in="SourceAlpha" type="matrix" values="0 0 0 0 0 0 0 0 0 0 0 0 0 0 0 0 0 0 127 0" result="hardAlpha"/>
<feOffset dy="4"/>
<feGaussianBlur stdDeviation="2"/>
<feComposite in2="hardAlpha" operator="out"/>
<feColorMatrix type="matrix" values="0 0 0 0 0 0 0 0 0 0 0 0 0 0 0 0 0 0 0.25 0"/>
<feBlend mode="normal" in2="BackgroundImageFix" result="effect1_dropShadow_4149_662"/>
<feBlend mode="normal" in="SourceGraphic" in2="effect1_dropShadow_4149_662" result="shape"/>
</filter>
<filter id="filter5_d_4149_662" x="324" y="200" width="108" height="18" filterUnits="userSpaceOnUse" color-interpolation-filters="sRGB">
<feFlood flood-opacity="0" result="BackgroundImageFix"/>
<feColorMatrix in="SourceAlpha" type="matrix" values="0 0 0 0 0 0 0 0 0 0 0 0 0 0 0 0 0 0 127 0" result="hardAlpha"/>
<feOffset dy="4"/>
<feGaussianBlur stdDeviation="2"/>
<feComposite in2="hardAlpha" operator="out"/>
<feColorMatrix type="matrix" values="0 0 0 0 0 0 0 0 0 0 0 0 0 0 0 0 0 0 0.25 0"/>
<feBlend mode="normal" in2="BackgroundImageFix" result="effect1_dropShadow_4149_662"/>
<feBlend mode="normal" in="SourceGraphic" in2="effect1_dropShadow_4149_662" result="shape"/>
</filter>
<filter id="filter6_d_4149_662" x="287" y="223" width="284" height="18" filterUnits="userSpaceOnUse" color-interpolation-filters="sRGB">
<feFlood flood-opacity="0" result="BackgroundImageFix"/>
<feColorMatrix in="SourceAlpha" type="matrix" values="0 0 0 0 0 0 0 0 0 0 0 0 0 0 0 0 0 0 127 0" result="hardAlpha"/>
<feOffset dy="4"/>
<feGaussianBlur stdDeviation="2"/>
<feComposite in2="hardAlpha" operator="out"/>
<feColorMatrix type="matrix" values="0 0 0 0 0 0 0 0 0 0 0 0 0 0 0 0 0 0 0.25 0"/>
<feBlend mode="normal" in2="BackgroundImageFix" result="effect1_dropShadow_4149_662"/>
<feBlend mode="normal" in="SourceGraphic" in2="effect1_dropShadow_4149_662" result="shape"/>
</filter>
<filter id="filter7_d_4149_662" x="287" y="239" width="108" height="18" filterUnits="userSpaceOnUse" color-interpolation-filters="sRGB">
<feFlood flood-opacity="0" result="BackgroundImageFix"/>
<feColorMatrix in="SourceAlpha" type="matrix" values="0 0 0 0 0 0 0 0 0 0 0 0 0 0 0 0 0 0 127 0" result="hardAlpha"/>
<feOffset dy="4"/>
<feGaussianBlur stdDeviation="2"/>
<feComposite in2="hardAlpha" operator="out"/>
<feColorMatrix type="matrix" values="0 0 0 0 0 0 0 0 0 0 0 0 0 0 0 0 0 0 0.25 0"/>
<feBlend mode="normal" in2="BackgroundImageFix" result="effect1_dropShadow_4149_662"/>
<feBlend mode="normal" in="SourceGraphic" in2="effect1_dropShadow_4149_662" result="shape"/>
</filter>
<filter id="filter8_d_4149_662" x="251" y="267" width="236" height="18" filterUnits="userSpaceOnUse" color-interpolation-filters="sRGB">
<feFlood flood-opacity="0" result="BackgroundImageFix"/>
<feColorMatrix in="SourceAlpha" type="matrix" values="0 0 0 0 0 0 0 0 0 0 0 0 0 0 0 0 0 0 127 0" result="hardAlpha"/>
<feOffset dy="4"/>
<feGaussianBlur stdDeviation="2"/>
<feComposite in2="hardAlpha" operator="out"/>
<feColorMatrix type="matrix" values="0 0 0 0 0 0 0 0 0 0 0 0 0 0 0 0 0 0 0.25 0"/>
<feBlend mode="normal" in2="BackgroundImageFix" result="effect1_dropShadow_4149_662"/>
<feBlend mode="normal" in="SourceGraphic" in2="effect1_dropShadow_4149_662" result="shape"/>
</filter>
<filter id="filter9_d_4149_662" x="251" y="286" width="108" height="18" filterUnits="userSpaceOnUse" color-interpolation-filters="sRGB">
<feFlood flood-opacity="0" result="BackgroundImageFix"/>
<feColorMatrix in="SourceAlpha" type="matrix" values="0 0 0 0 0 0 0 0 0 0 0 0 0 0 0 0 0 0 127 0" result="hardAlpha"/>
<feOffset dy="4"/>
<feGaussianBlur stdDeviation="2"/>
<feComposite in2="hardAlpha" operator="out"/>
<feColorMatrix type="matrix" values="0 0 0 0 0 0 0 0 0 0 0 0 0 0 0 0 0 0 0.25 0"/>
<feBlend mode="normal" in2="BackgroundImageFix" result="effect1_dropShadow_4149_662"/>
<feBlend mode="normal" in="SourceGraphic" in2="effect1_dropShadow_4149_662" result="shape"/>
</filter>
<filter id="filter10_d_4149_662" x="366" y="286" width="58" height="18" filterUnits="userSpaceOnUse" color-interpolation-filters="sRGB">
<feFlood flood-opacity="0" result="BackgroundImageFix"/>
<feColorMatrix in="SourceAlpha" type="matrix" values="0 0 0 0 0 0 0 0 0 0 0 0 0 0 0 0 0 0 127 0" result="hardAlpha"/>
<feOffset dy="4"/>
<feGaussianBlur stdDeviation="2"/>
<feComposite in2="hardAlpha" operator="out"/>
<feColorMatrix type="matrix" values="0 0 0 0 0 0 0 0 0 0 0 0 0 0 0 0 0 0 0.25 0"/>
<feBlend mode="normal" in2="BackgroundImageFix" result="effect1_dropShadow_4149_662"/>
<feBlend mode="normal" in="SourceGraphic" in2="effect1_dropShadow_4149_662" result="shape"/>
</filter>
<filter id="filter11_d_4149_662" x="303" y="308" width="226" height="18" filterUnits="userSpaceOnUse" color-interpolation-filters="sRGB">
<feFlood flood-opacity="0" result="BackgroundImageFix"/>
<feColorMatrix in="SourceAlpha" type="matrix" values="0 0 0 0 0 0 0 0 0 0 0 0 0 0 0 0 0 0 127 0" result="hardAlpha"/>
<feOffset dy="4"/>
<feGaussianBlur stdDeviation="2"/>
<feComposite in2="hardAlpha" operator="out"/>
<feColorMatrix type="matrix" values="0 0 0 0 0 0 0 0 0 0 0 0 0 0 0 0 0 0 0.25 0"/>
<feBlend mode="normal" in2="BackgroundImageFix" result="effect1_dropShadow_4149_662"/>
<feBlend mode="normal" in="SourceGraphic" in2="effect1_dropShadow_4149_662" result="shape"/>
</filter>
<filter id="filter12_d_4149_662" x="303" y="324" width="96" height="18" filterUnits="userSpaceOnUse" color-interpolation-filters="sRGB">
<feFlood flood-opacity="0" result="BackgroundImageFix"/>
<feColorMatrix in="SourceAlpha" type="matrix" values="0 0 0 0 0 0 0 0 0 0 0 0 0 0 0 0 0 0 127 0" result="hardAlpha"/>
<feOffset dy="4"/>
<feGaussianBlur stdDeviation="2"/>
<feComposite in2="hardAlpha" operator="out"/>
<feColorMatrix type="matrix" values="0 0 0 0 0 0 0 0 0 0 0 0 0 0 0 0 0 0 0.25 0"/>
<feBlend mode="normal" in2="BackgroundImageFix" result="effect1_dropShadow_4149_662"/>
<feBlend mode="normal" in="SourceGraphic" in2="effect1_dropShadow_4149_662" result="shape"/>
</filter>
<filter id="filter13_d_4149_662" x="303" y="340" width="69" height="18" filterUnits="userSpaceOnUse" color-interpolation-filters="sRGB">
<feFlood flood-opacity="0" result="BackgroundImageFix"/>
<feColorMatrix in="SourceAlpha" type="matrix" values="0 0 0 0 0 0 0 0 0 0 0 0 0 0 0 0 0 0 127 0" result="hardAlpha"/>
<feOffset dy="4"/>
<feGaussianBlur stdDeviation="2"/>
<feComposite in2="hardAlpha" operator="out"/>
<feColorMatrix type="matrix" values="0 0 0 0 0 0 0 0 0 0 0 0 0 0 0 0 0 0 0.25 0"/>
<feBlend mode="normal" in2="BackgroundImageFix" result="effect1_dropShadow_4149_662"/>
<feBlend mode="normal" in="SourceGraphic" in2="effect1_dropShadow_4149_662" result="shape"/>
</filter>
<filter id="filter14_d_4149_662" x="176" y="130" width="89" height="41" filterUnits="userSpaceOnUse" color-interpolation-filters="sRGB">
<feFlood flood-opacity="0" result="BackgroundImageFix"/>
<feColorMatrix in="SourceAlpha" type="matrix" values="0 0 0 0 0 0 0 0 0 0 0 0 0 0 0 0 0 0 127 0" result="hardAlpha"/>
<feOffset dx="-5" dy="5"/>
<feGaussianBlur stdDeviation="2"/>
<feComposite in2="hardAlpha" operator="out"/>
<feColorMatrix type="matrix" values="0 0 0 0 0 0 0 0 0 0 0 0 0 0 0 0 0 0 0.45 0"/>
<feBlend mode="normal" in2="BackgroundImageFix" result="effect1_dropShadow_4149_662"/>
<feBlend mode="normal" in="SourceGraphic" in2="effect1_dropShadow_4149_662" result="shape"/>
</filter>
<filter id="filter15_d_4149_662" x="221" y="180" width="89" height="41" filterUnits="userSpaceOnUse" color-interpolation-filters="sRGB">
<feFlood flood-opacity="0" result="BackgroundImageFix"/>
<feColorMatrix in="SourceAlpha" type="matrix" values="0 0 0 0 0 0 0 0 0 0 0 0 0 0 0 0 0 0 127 0" result="hardAlpha"/>
<feOffset dx="-5" dy="5"/>
<feGaussianBlur stdDeviation="2"/>
<feComposite in2="hardAlpha" operator="out"/>
<feColorMatrix type="matrix" values="0 0 0 0 0 0 0 0 0 0 0 0 0 0 0 0 0 0 0.45 0"/>
<feBlend mode="normal" in2="BackgroundImageFix" result="effect1_dropShadow_4149_662"/>
<feBlend mode="normal" in="SourceGraphic" in2="effect1_dropShadow_4149_662" result="shape"/>
</filter>
<filter id="filter16_d_4149_662" x="177" y="223" width="89" height="41" filterUnits="userSpaceOnUse" color-interpolation-filters="sRGB">
<feFlood flood-opacity="0" result="BackgroundImageFix"/>
<feColorMatrix in="SourceAlpha" type="matrix" values="0 0 0 0 0 0 0 0 0 0 0 0 0 0 0 0 0 0 127 0" result="hardAlpha"/>
<feOffset dx="-5" dy="5"/>
<feGaussianBlur stdDeviation="2"/>
<feComposite in2="hardAlpha" operator="out"/>
<feColorMatrix type="matrix" values="0 0 0 0 0 0 0 0 0 0 0 0 0 0 0 0 0 0 0.45 0"/>
<feBlend mode="normal" in2="BackgroundImageFix" result="effect1_dropShadow_4149_662"/>
<feBlend mode="normal" in="SourceGraphic" in2="effect1_dropShadow_4149_662" result="shape"/>
</filter>
<filter id="filter17_d_4149_662" x="146" y="266" width="89" height="41" filterUnits="userSpaceOnUse" color-interpolation-filters="sRGB">
<feFlood flood-opacity="0" result="BackgroundImageFix"/>
<feColorMatrix in="SourceAlpha" type="matrix" values="0 0 0 0 0 0 0 0 0 0 0 0 0 0 0 0 0 0 127 0" result="hardAlpha"/>
<feOffset dx="-5" dy="5"/>
<feGaussianBlur stdDeviation="2"/>
<feComposite in2="hardAlpha" operator="out"/>
<feColorMatrix type="matrix" values="0 0 0 0 0 0 0 0 0 0 0 0 0 0 0 0 0 0 0.45 0"/>
<feBlend mode="normal" in2="BackgroundImageFix" result="effect1_dropShadow_4149_662"/>
<feBlend mode="normal" in="SourceGraphic" in2="effect1_dropShadow_4149_662" result="shape"/>
</filter>
<filter id="filter18_d_4149_662" x="196" y="314" width="89" height="41" filterUnits="userSpaceOnUse" color-interpolation-filters="sRGB">
<feFlood flood-opacity="0" result="BackgroundImageFix"/>
<feColorMatrix in="SourceAlpha" type="matrix" values="0 0 0 0 0 0 0 0 0 0 0 0 0 0 0 0 0 0 127 0" result="hardAlpha"/>
<feOffset dx="-5" dy="5"/>
<feGaussianBlur stdDeviation="2"/>
<feComposite in2="hardAlpha" operator="out"/>
<feColorMatrix type="matrix" values="0 0 0 0 0 0 0 0 0 0 0 0 0 0 0 0 0 0 0.45 0"/>
<feBlend mode="normal" in2="BackgroundImageFix" result="effect1_dropShadow_4149_662"/>
<feBlend mode="normal" in="SourceGraphic" in2="effect1_dropShadow_4149_662" result="shape"/>
</filter>
<filter id="filter19_d_4149_662" x="14" y="134" width="135" height="25" filterUnits="userSpaceOnUse" color-interpolation-filters="sRGB">
<feFlood flood-opacity="0" result="BackgroundImageFix"/>
<feColorMatrix in="SourceAlpha" type="matrix" values="0 0 0 0 0 0 0 0 0 0 0 0 0 0 0 0 0 0 127 0" result="hardAlpha"/>
<feOffset dy="4"/>
<feGaussianBlur stdDeviation="2"/>
<feComposite in2="hardAlpha" operator="out"/>
<feColorMatrix type="matrix" values="0 0 0 0 0 0 0 0 0 0 0 0 0 0 0 0 0 0 0.25 0"/>
<feBlend mode="normal" in2="BackgroundImageFix" result="effect1_dropShadow_4149_662"/>
<feBlend mode="normal" in="SourceGraphic" in2="effect1_dropShadow_4149_662" result="shape"/>
</filter>
<filter id="filter20_d_4149_662" x="14" y="158" width="135" height="25" filterUnits="userSpaceOnUse" color-interpolation-filters="sRGB">
<feFlood flood-opacity="0" result="BackgroundImageFix"/>
<feColorMatrix in="SourceAlpha" type="matrix" values="0 0 0 0 0 0 0 0 0 0 0 0 0 0 0 0 0 0 127 0" result="hardAlpha"/>
<feOffset dy="4"/>
<feGaussianBlur stdDeviation="2"/>
<feComposite in2="hardAlpha" operator="out"/>
<feColorMatrix type="matrix" values="0 0 0 0 0 0 0 0 0 0 0 0 0 0 0 0 0 0 0.25 0"/>
<feBlend mode="normal" in2="BackgroundImageFix" result="effect1_dropShadow_4149_662"/>
<feBlend mode="normal" in="SourceGraphic" in2="effect1_dropShadow_4149_662" result="shape"/>
</filter>
<filter id="filter21_d_4149_662" x="14" y="182" width="135" height="25" filterUnits="userSpaceOnUse" color-interpolation-filters="sRGB">
<feFlood flood-opacity="0" result="BackgroundImageFix"/>
<feColorMatrix in="SourceAlpha" type="matrix" values="0 0 0 0 0 0 0 0 0 0 0 0 0 0 0 0 0 0 127 0" result="hardAlpha"/>
<feOffset dy="4"/>
<feGaussianBlur stdDeviation="2"/>
<feComposite in2="hardAlpha" operator="out"/>
<feColorMatrix type="matrix" values="0 0 0 0 0 0 0 0 0 0 0 0 0 0 0 0 0 0 0.25 0"/>
<feBlend mode="normal" in2="BackgroundImageFix" result="effect1_dropShadow_4149_662"/>
<feBlend mode="normal" in="SourceGraphic" in2="effect1_dropShadow_4149_662" result="shape"/>
</filter>
<filter id="filter22_d_4149_662" x="14" y="206" width="135" height="25" filterUnits="userSpaceOnUse" color-interpolation-filters="sRGB">
<feFlood flood-opacity="0" result="BackgroundImageFix"/>
<feColorMatrix in="SourceAlpha" type="matrix" values="0 0 0 0 0 0 0 0 0 0 0 0 0 0 0 0 0 0 127 0" result="hardAlpha"/>
<feOffset dy="4"/>
<feGaussianBlur stdDeviation="2"/>
<feComposite in2="hardAlpha" operator="out"/>
<feColorMatrix type="matrix" values="0 0 0 0 0 0 0 0 0 0 0 0 0 0 0 0 0 0 0.25 0"/>
<feBlend mode="normal" in2="BackgroundImageFix" result="effect1_dropShadow_4149_662"/>
<feBlend mode="normal" in="SourceGraphic" in2="effect1_dropShadow_4149_662" result="shape"/>
</filter>
<filter id="filter23_d_4149_662" x="14" y="230" width="135" height="25" filterUnits="userSpaceOnUse" color-interpolation-filters="sRGB">
<feFlood flood-opacity="0" result="BackgroundImageFix"/>
<feColorMatrix in="SourceAlpha" type="matrix" values="0 0 0 0 0 0 0 0 0 0 0 0 0 0 0 0 0 0 127 0" result="hardAlpha"/>
<feOffset dy="4"/>
<feGaussianBlur stdDeviation="2"/>
<feComposite in2="hardAlpha" operator="out"/>
<feColorMatrix type="matrix" values="0 0 0 0 0 0 0 0 0 0 0 0 0 0 0 0 0 0 0.25 0"/>
<feBlend mode="normal" in2="BackgroundImageFix" result="effect1_dropShadow_4149_662"/>
<feBlend mode="normal" in="SourceGraphic" in2="effect1_dropShadow_4149_662" result="shape"/>
</filter>
<filter id="filter24_d_4149_662" x="14" y="254" width="135" height="25" filterUnits="userSpaceOnUse" color-interpolation-filters="sRGB">
<feFlood flood-opacity="0" result="BackgroundImageFix"/>
<feColorMatrix in="SourceAlpha" type="matrix" values="0 0 0 0 0 0 0 0 0 0 0 0 0 0 0 0 0 0 127 0" result="hardAlpha"/>
<feOffset dy="4"/>
<feGaussianBlur stdDeviation="2"/>
<feComposite in2="hardAlpha" operator="out"/>
<feColorMatrix type="matrix" values="0 0 0 0 0 0 0 0 0 0 0 0 0 0 0 0 0 0 0.25 0"/>
<feBlend mode="normal" in2="BackgroundImageFix" result="effect1_dropShadow_4149_662"/>
<feBlend mode="normal" in="SourceGraphic" in2="effect1_dropShadow_4149_662" result="shape"/>
</filter>
<filter id="filter25_d_4149_662" x="14" y="278" width="135" height="25" filterUnits="userSpaceOnUse" color-interpolation-filters="sRGB">
<feFlood flood-opacity="0" result="BackgroundImageFix"/>
<feColorMatrix in="SourceAlpha" type="matrix" values="0 0 0 0 0 0 0 0 0 0 0 0 0 0 0 0 0 0 127 0" result="hardAlpha"/>
<feOffset dy="4"/>
<feGaussianBlur stdDeviation="2"/>
<feComposite in2="hardAlpha" operator="out"/>
<feColorMatrix type="matrix" values="0 0 0 0 0 0 0 0 0 0 0 0 0 0 0 0 0 0 0.25 0"/>
<feBlend mode="normal" in2="BackgroundImageFix" result="effect1_dropShadow_4149_662"/>
<feBlend mode="normal" in="SourceGraphic" in2="effect1_dropShadow_4149_662" result="shape"/>
</filter>
<filter id="filter26_d_4149_662" x="14" y="302" width="135" height="25" filterUnits="userSpaceOnUse" color-interpolation-filters="sRGB">
<feFlood flood-opacity="0" result="BackgroundImageFix"/>
<feColorMatrix in="SourceAlpha" type="matrix" values="0 0 0 0 0 0 0 0 0 0 0 0 0 0 0 0 0 0 127 0" result="hardAlpha"/>
<feOffset dy="4"/>
<feGaussianBlur stdDeviation="2"/>
<feComposite in2="hardAlpha" operator="out"/>
<feColorMatrix type="matrix" values="0 0 0 0 0 0 0 0 0 0 0 0 0 0 0 0 0 0 0.25 0"/>
<feBlend mode="normal" in2="BackgroundImageFix" result="effect1_dropShadow_4149_662"/>
<feBlend mode="normal" in="SourceGraphic" in2="effect1_dropShadow_4149_662" result="shape"/>
</filter>
<filter id="filter27_d_4149_662" x="14" y="326" width="135" height="25" filterUnits="userSpaceOnUse" color-interpolation-filters="sRGB">
<feFlood flood-opacity="0" result="BackgroundImageFix"/>
<feColorMatrix in="SourceAlpha" type="matrix" values="0 0 0 0 0 0 0 0 0 0 0 0 0 0 0 0 0 0 127 0" result="hardAlpha"/>
<feOffset dy="4"/>
<feGaussianBlur stdDeviation="2"/>
<feComposite in2="hardAlpha" operator="out"/>
<feColorMatrix type="matrix" values="0 0 0 0 0 0 0 0 0 0 0 0 0 0 0 0 0 0 0.25 0"/>
<feBlend mode="normal" in2="BackgroundImageFix" result="effect1_dropShadow_4149_662"/>
<feBlend mode="normal" in="SourceGraphic" in2="effect1_dropShadow_4149_662" result="shape"/>
</filter>
<filter id="filter28_d_4149_662" x="14" y="110" width="135" height="25" filterUnits="userSpaceOnUse" color-interpolation-filters="sRGB">
<feFlood flood-opacity="0" result="BackgroundImageFix"/>
<feColorMatrix in="SourceAlpha" type="matrix" values="0 0 0 0 0 0 0 0 0 0 0 0 0 0 0 0 0 0 127 0" result="hardAlpha"/>
<feOffset dy="4"/>
<feGaussianBlur stdDeviation="2"/>
<feComposite in2="hardAlpha" operator="out"/>
<feColorMatrix type="matrix" values="0 0 0 0 0 0 0 0 0 0 0 0 0 0 0 0 0 0 0.25 0"/>
<feBlend mode="normal" in2="BackgroundImageFix" result="effect1_dropShadow_4149_662"/>
<feBlend mode="normal" in="SourceGraphic" in2="effect1_dropShadow_4149_662" result="shape"/>
</filter>
<filter id="filter29_d_4149_662" x="14" y="86" width="135" height="25" filterUnits="userSpaceOnUse" color-interpolation-filters="sRGB">
<feFlood flood-opacity="0" result="BackgroundImageFix"/>
<feColorMatrix in="SourceAlpha" type="matrix" values="0 0 0 0 0 0 0 0 0 0 0 0 0 0 0 0 0 0 127 0" result="hardAlpha"/>
<feOffset dy="4"/>
<feGaussianBlur stdDeviation="2"/>
<feComposite in2="hardAlpha" operator="out"/>
<feColorMatrix type="matrix" values="0 0 0 0 0 0 0 0 0 0 0 0 0 0 0 0 0 0 0.25 0"/>
<feBlend mode="normal" in2="BackgroundImageFix" result="effect1_dropShadow_4149_662"/>
<feBlend mode="normal" in="SourceGraphic" in2="effect1_dropShadow_4149_662" result="shape"/>
</filter>
<filter id="filter30_d_4149_662" x="185.207" y="16.5625" width="70.8516" height="36.4375" filterUnits="userSpaceOnUse" color-interpolation-filters="sRGB">
<feFlood flood-opacity="0" result="BackgroundImageFix"/>
<feColorMatrix in="SourceAlpha" type="matrix" values="0 0 0 0 0 0 0 0 0 0 0 0 0 0 0 0 0 0 127 0" result="hardAlpha"/>
<feOffset dy="4"/>
<feGaussianBlur stdDeviation="2"/>
<feComposite in2="hardAlpha" operator="out"/>
<feColorMatrix type="matrix" values="0 0 0 0 0 0 0 0 0 0 0 0 0 0 0 0 0 0 0.25 0"/>
<feBlend mode="normal" in2="BackgroundImageFix" result="effect1_dropShadow_4149_662"/>
<feBlend mode="normal" in="SourceGraphic" in2="effect1_dropShadow_4149_662" result="shape"/>
</filter>
<clipPath id="clip0_4149_662">
<rect width="675" height="380" fill="white"/>
</clipPath>
<clipPath id="clip1_4149_662">
<rect width="126" height="25" fill="white" transform="translate(20 18)"/>
</clipPath>
</defs>
</svg>
