<svg width="16" height="16" viewBox="0 0 16 16" fill="none" xmlns="http://www.w3.org/2000/svg">
<g id="square-envelope" clip-path="url(#clip0_2885_4161)">
<rect width="16" height="16" fill="black"/>
<path id="Vector" d="M15.1429 -2H0.857143C-0.721875 -2 -2 -0.721875 -2 0.857143V15.1429C-2 16.7223 -0.722321 18 0.857143 18H15.1429C16.7223 18 18 16.7223 18 15.1429V0.857143C18 -0.721875 16.7232 -2 15.1429 -2ZM15.1429 11.5714C15.1429 12.3603 14.5031 13 13.7143 13H2.28571C1.49688 13 0.857143 12.3603 0.857143 11.5714V6.65625L7.04018 9.74866C7.34375 9.89732 7.66964 9.97322 8 9.97322C8.33036 9.97322 8.65848 9.89786 8.95848 9.7479L15.1429 6.65625V11.5714ZM15.1429 5.05804L8.32143 8.46964C8.12054 8.57009 7.88339 8.57009 7.68259 8.46964L0.857143 5.05804V4.42857C0.857143 3.63973 1.49688 3 2.28571 3H13.7143C14.5031 3 15.1429 3.63973 15.1429 4.42857V5.05804Z" fill="white"/>
</g>
<defs>
<clipPath id="clip0_2885_4161">
<rect width="16" height="16" fill="white"/>
</clipPath>
</defs>
</svg>
