<svg width="24" height="24" viewBox="0 0 24 24" fill="none" xmlns="http://www.w3.org/2000/svg">
<path d="M12 0C5.383 0 0 5.383 0 12C0 18.617 5.383 24 12 24C18.616 24 24 18.617 24 12C24 5.383 18.616 0 12 0ZM12 1.144C17.995 1.144 22.856 6.004 22.856 12C22.856 17.995 17.996 22.856 12 22.856C6.004 22.856 1.144 17.996 1.144 12C1.144 6.004 6.004 1.144 12 1.144ZM8.37 5.868C8.22898 5.86522 8.08791 5.86689 7.947 5.873C6.964 5.929 6.374 6.39 6.212 7.345C6.097 8.01 6.116 8.693 6.069 9.362C6.056 9.712 6.019 10.059 5.954 10.4C5.82 11.009 5.557 11.198 4.938 11.23C4.85606 11.2402 4.77463 11.2542 4.694 11.272V12.735C5.82 12.79 5.972 13.187 6.064 14.364C6.097 14.793 6.051 15.222 6.079 15.651C6.097 16.057 6.152 16.459 6.235 16.851C6.494 17.926 7.542 18.286 8.81 18.069V16.786C8.607 16.786 8.427 16.791 8.252 16.786C7.822 16.773 7.661 16.666 7.62 16.251C7.564 15.716 7.578 15.171 7.545 14.631C7.481 13.63 7.37 12.643 6.392 12.006C6.895 11.636 7.26 11.194 7.375 10.608C7.458 10.198 7.509 9.787 7.541 9.371C7.569 8.956 7.518 8.531 7.555 8.121C7.615 7.456 7.657 7.184 8.455 7.211C8.575 7.211 8.69 7.194 8.824 7.184V5.874C8.664 5.874 8.514 5.87 8.37 5.868ZM15.963 5.877C15.6907 5.87088 15.4184 5.89098 15.15 5.937V7.211C15.395 7.211 15.584 7.211 15.773 7.216C16.101 7.22 16.35 7.346 16.383 7.71C16.415 8.042 16.414 8.379 16.447 8.716C16.512 9.385 16.548 10.063 16.664 10.723C16.766 11.267 17.139 11.673 17.605 12.006C16.788 12.555 16.548 13.339 16.507 14.221C16.484 14.825 16.47 15.434 16.438 16.043C16.41 16.597 16.216 16.777 15.658 16.791C15.501 16.795 15.348 16.809 15.174 16.819V18.124C15.501 18.124 15.801 18.143 16.101 18.124C17.033 18.069 17.596 17.617 17.781 16.712C17.859 16.214 17.905 15.712 17.919 15.208C17.951 14.747 17.947 14.281 17.993 13.824C18.062 13.109 18.39 12.814 19.105 12.767C19.1728 12.7587 19.2395 12.7433 19.304 12.721V11.258C19.184 11.244 19.1 11.231 19.013 11.226C18.477 11.203 18.209 11.023 18.076 10.516C17.9931 10.1907 17.9422 9.85816 17.924 9.523C17.887 8.905 17.891 8.282 17.85 7.663C17.77 6.471 17.056 5.91 15.963 5.877ZM9.073 11.157C8.85619 11.1568 8.6476 11.24 8.49048 11.3894C8.33336 11.5388 8.23976 11.7429 8.22909 11.9595C8.21842 12.176 8.29149 12.3883 8.43316 12.5525C8.57482 12.7166 8.77422 12.8199 8.99 12.841H9.045C9.26473 12.8538 9.48056 12.7789 9.64502 12.6326C9.80948 12.4863 9.90912 12.2807 9.922 12.061V12.015C9.92548 11.7912 9.84004 11.5752 9.68443 11.4144C9.52883 11.2535 9.31577 11.1609 9.092 11.157H9.073ZM11.984 11.157C11.77 11.15 11.562 11.2282 11.4056 11.3744C11.2492 11.5207 11.1573 11.723 11.15 11.937C11.15 11.964 11.15 11.987 11.154 12.015C11.154 12.518 11.496 12.841 12.013 12.841C12.52 12.841 12.839 12.509 12.839 11.988C12.834 11.485 12.497 11.152 11.984 11.157ZM14.947 11.157C14.7205 11.153 14.5015 11.2383 14.3376 11.3946C14.1736 11.5509 14.0778 11.7656 14.071 11.992C14.071 12.462 14.449 12.841 14.92 12.841H14.929C15.354 12.915 15.782 12.504 15.81 12.011C15.833 11.554 15.418 11.157 14.947 11.157Z" fill="#D61A00"/>
</svg>
