<svg width="24" height="25" viewBox="0 0 24 25" fill="none" xmlns="http://www.w3.org/2000/svg">
  <g id="swagger-svgrepo-com 1">
    <path id="Vector" d="M12 0.5C5.383 0.5 0 5.883 0 12.5C0 19.117 5.383 24.5 12 24.5C18.616 24.5 24 19.117 24 12.5C24 5.883 18.616 0.5 12 0.5ZM12 1.644C17.995 1.644 22.856 6.504 22.856 12.5C22.856 18.495 17.996 23.356 12 23.356C6.004 23.356 1.144 18.496 1.144 12.5C1.144 6.504 6.004 1.644 12 1.644ZM8.37 6.368C8.22898 6.36522 8.08791 6.36689 7.947 6.373C6.964 6.429 6.374 6.89 6.212 7.845C6.097 8.51 6.116 9.193 6.069 9.862C6.056 10.212 6.019 10.559 5.954 10.9C5.82 11.509 5.557 11.698 4.938 11.73C4.85606 11.7402 4.77463 11.7542 4.694 11.772V13.235C5.82 13.29 5.972 13.687 6.064 14.864C6.097 15.293 6.051 15.722 6.079 16.151C6.097 16.557 6.152 16.959 6.235 17.351C6.494 18.426 7.542 18.786 8.81 18.569V17.286C8.607 17.286 8.427 17.291 8.252 17.286C7.822 17.273 7.661 17.166 7.62 16.751C7.564 16.216 7.578 15.671 7.545 15.131C7.481 14.13 7.37 13.143 6.392 12.506C6.895 12.136 7.26 11.694 7.375 11.108C7.458 10.698 7.509 10.287 7.541 9.871C7.569 9.456 7.518 9.031 7.555 8.621C7.615 7.956 7.657 7.684 8.455 7.711C8.575 7.711 8.69 7.694 8.824 7.684V6.374C8.664 6.374 8.514 6.37 8.37 6.368ZM15.963 6.377C15.6907 6.37088 15.4184 6.39098 15.15 6.437V7.711C15.395 7.711 15.584 7.711 15.773 7.716C16.101 7.72 16.35 7.846 16.383 8.21C16.415 8.542 16.414 8.879 16.447 9.216C16.512 9.885 16.548 10.563 16.664 11.223C16.766 11.767 17.139 12.173 17.605 12.506C16.788 13.055 16.548 13.839 16.507 14.721C16.484 15.325 16.47 15.934 16.438 16.543C16.41 17.097 16.216 17.277 15.658 17.291C15.501 17.295 15.348 17.309 15.174 17.319V18.624C15.501 18.624 15.801 18.643 16.101 18.624C17.033 18.569 17.596 18.117 17.781 17.212C17.859 16.714 17.905 16.212 17.919 15.708C17.951 15.247 17.947 14.781 17.993 14.324C18.062 13.609 18.39 13.314 19.105 13.267C19.1728 13.2587 19.2395 13.2433 19.304 13.221V11.758C19.184 11.744 19.1 11.731 19.013 11.726C18.477 11.703 18.209 11.523 18.076 11.016C17.9931 10.6907 17.9422 10.3582 17.924 10.023C17.887 9.405 17.891 8.782 17.85 8.163C17.77 6.971 17.056 6.41 15.963 6.377ZM9.073 11.657C8.85619 11.6568 8.6476 11.74 8.49048 11.8894C8.33336 12.0388 8.23976 12.2429 8.22909 12.4595C8.21842 12.676 8.29149 12.8883 8.43316 13.0525C8.57482 13.2166 8.77422 13.3199 8.99 13.341H9.045C9.26473 13.3538 9.48056 13.2789 9.64502 13.1326C9.80948 12.9863 9.90912 12.7807 9.922 12.561V12.515C9.92548 12.2912 9.84004 12.0752 9.68443 11.9144C9.52883 11.7535 9.31577 11.6609 9.092 11.657H9.073ZM11.984 11.657C11.77 11.65 11.562 11.7282 11.4056 11.8744C11.2492 12.0207 11.1573 12.223 11.15 12.437C11.15 12.464 11.15 12.487 11.154 12.515C11.154 13.018 11.496 13.341 12.013 13.341C12.52 13.341 12.839 13.009 12.839 12.488C12.834 11.985 12.497 11.652 11.984 11.657ZM14.947 11.657C14.7205 11.653 14.5015 11.7383 14.3376 11.8946C14.1736 12.0509 14.0778 12.2656 14.071 12.492C14.071 12.962 14.449 13.341 14.92 13.341H14.929C15.354 13.415 15.782 13.004 15.81 12.511C15.833 12.054 15.418 11.657 14.947 11.657Z" fill="#219653"/>
  </g>
</svg>
