<svg width="24" height="15" viewBox="0 0 24 15" fill="none" xmlns="http://www.w3.org/2000/svg">
<path id="Vector" d="M22.956 3.6755L13.0185 0.4625C12.3506 0.246875 11.6498 0.246875 10.9819 0.4625L1.04438 3.6755C0.41025 3.88063 0 4.44012 0 5.10088C0 5.76163 0.41025 6.32113 1.044 6.52625L2.15813 6.88625C2.03437 7.118 1.94288 7.36738 1.88325 7.62875C1.48238 7.823 1.2 8.22538 1.2 8.70088C1.2 9.17825 1.48388 9.58288 1.88738 9.776L1.2105 13.9708C1.15013 14.3454 1.35713 14.7009 1.63575 14.7009H3.16388C3.4425 14.7009 3.64988 14.3454 3.58913 13.9708L2.91263 9.776C3.31613 9.58288 3.6 9.17825 3.6 8.70088C3.6 8.30338 3.39413 7.96813 3.09638 7.7495C3.15225 7.57475 3.23888 7.41725 3.34275 7.26913L5.34788 7.9175L4.8 12.3009C4.8 13.6265 8.0235 14.7009 12 14.7009C15.9765 14.7009 19.2 13.6265 19.2 12.3009L18.6521 7.9175L22.956 6.52588C23.5898 6.32113 24 5.76163 24 5.10088C24 4.44012 23.5898 3.88063 22.956 3.6755ZM17.9805 12.2206C17.577 12.6455 15.5265 13.5009 12 13.5009C8.4735 13.5009 6.423 12.6455 6.0195 12.2206L6.51038 8.29325L10.9819 9.73888C11.0794 9.77038 11.9464 10.085 13.0185 9.73888L17.49 8.29325L17.9805 12.2206ZM22.5855 5.38513L12.648 8.59813C12.2239 8.73538 11.7761 8.73538 11.352 8.59813L4.76438 6.46813L12.1103 5.09038C12.4361 5.02963 12.6506 4.71613 12.5895 4.39025C12.5288 4.064 12.2085 3.85063 11.8898 3.91138L4.248 5.34387C3.783 5.43088 3.36637 5.63075 3.0075 5.9L1.41412 5.38475C1.11975 5.28913 1.13437 4.907 1.41412 4.81663L11.3516 1.60363C11.9179 1.42063 12.3956 1.52225 12.6476 1.60363L22.5851 4.81663C22.8623 4.90625 22.8818 5.28913 22.5855 5.38513Z" fill="#9B51E0"/>
</svg>
