<svg width="24" height="24" viewBox="0 0 24 24" fill="none" xmlns="http://www.w3.org/2000/svg">
<path d="M22.956 8.17468L13.0185 4.96168C12.3506 4.74605 11.6498 4.74605 10.9819 4.96168L1.04438 8.17468C0.41025 8.3798 0 8.9393 0 9.60005C0 10.2608 0.41025 10.8203 1.044 11.0254L2.15813 11.3854C2.03437 11.6172 1.94288 11.8666 1.88325 12.1279C1.48238 12.3222 1.2 12.7246 1.2 13.2001C1.2 13.6774 1.48388 14.0821 1.88738 14.2752L1.2105 18.4699C1.15013 18.8446 1.35713 19.2001 1.63575 19.2001H3.16388C3.4425 19.2001 3.64988 18.8446 3.58913 18.4699L2.91263 14.2752C3.31613 14.0821 3.6 13.6774 3.6 13.2001C3.6 12.8026 3.39413 12.4673 3.09638 12.2487C3.15225 12.0739 3.23888 11.9164 3.34275 11.7683L5.34788 12.4167L4.8 16.8001C4.8 18.1257 8.0235 19.2001 12 19.2001C15.9765 19.2001 19.2 18.1257 19.2 16.8001L18.6521 12.4167L22.956 11.0251C23.5898 10.8203 24 10.2608 24 9.60005C24 8.9393 23.5898 8.3798 22.956 8.17468ZM17.9805 16.7198C17.577 17.1447 15.5265 18.0001 12 18.0001C8.4735 18.0001 6.423 17.1447 6.0195 16.7198L6.51038 12.7924L10.9819 14.2381C11.0794 14.2696 11.9464 14.5842 13.0185 14.2381L17.49 12.7924L17.9805 16.7198ZM22.5855 9.8843L12.648 13.0973C12.2239 13.2346 11.7761 13.2346 11.352 13.0973L4.76438 10.9673L12.1103 9.58955C12.4361 9.5288 12.6506 9.2153 12.5895 8.88943C12.5288 8.56318 12.2085 8.3498 11.8898 8.41055L4.248 9.84305C3.783 9.93005 3.36637 10.1299 3.0075 10.3992L1.41412 9.88393C1.11975 9.7883 1.13437 9.40618 1.41412 9.3158L11.3516 6.1028C11.9179 5.9198 12.3956 6.02143 12.6476 6.1028L22.5851 9.3158C22.8623 9.40543 22.8818 9.7883 22.5855 9.8843Z" fill="#D61A00"/>
</svg>
