<svg width="24" height="24" viewBox="0 0 24 24" fill="none" xmlns="http://www.w3.org/2000/svg">
<path d="M4.46625 4.25549L2.06625 3.09949C1.77094 2.98426 1.41 3.06696 1.2645 3.36433C1.1145 3.65705 1.23169 4.01481 1.53169 4.15866L3.93169 5.31467C4.01625 5.35649 4.10625 5.3799 4.2 5.3799C4.47656 5.3799 4.7205 5.1894 4.78575 4.9201C4.84875 4.65508 4.7175 4.3763 4.46625 4.25549ZM4.2 13.673C4.10625 13.673 4.01719 13.6963 3.93281 13.7381L1.53281 14.8941C1.23281 15.0381 1.11581 15.3959 1.26094 15.6884C1.41094 15.9523 1.77169 16.1018 2.06719 15.9579L4.46719 14.8019C4.71563 14.6765 4.84669 14.3979 4.78594 14.1663C4.72125 13.8961 4.4775 13.673 4.2 13.673ZM19.8 5.3799C19.8938 5.3799 19.9828 5.35667 20.0672 5.31486L22.4672 4.15885C22.7672 4.01481 22.8842 3.65705 22.7344 3.36451C22.5891 3.1006 22.2281 2.95118 21.9326 3.09967L19.5326 4.25568C19.2842 4.37648 19.1531 4.65526 19.2139 4.91992C19.2788 5.18922 19.5225 5.3799 19.8 5.3799ZM3.6 9.50993C3.6 9.21257 3.333 8.9152 3 8.9152H0.6C0.267188 8.9152 0 9.18004 0 9.47648C0 9.77291 0.267188 10.1047 0.6 10.1047H3C3.333 10.1047 3.6 9.8742 3.6 9.50993ZM23.4 8.9152H21C20.6672 8.9152 20.4 9.18004 20.4 9.47648C20.4 9.77291 20.6672 10.0378 21 10.0378H23.4C23.7328 10.0378 24 9.77291 24 9.47648C24 9.18004 23.7338 8.9152 23.4 8.9152ZM22.4662 14.9591L20.0662 13.8031C19.7709 13.6879 19.41 13.7753 19.26 14.068C19.1147 14.3607 19.2319 14.7185 19.5319 14.8671L21.9319 16.0232C22.2272 16.1672 22.5881 16.051 22.7381 15.7537C22.8862 15.4609 22.7663 15.1041 22.4662 14.9591ZM11.9813 3.00193C8.35125 3.01239 5.4 5.97092 5.4 9.59542C5.4 11.1904 5.98013 12.7304 7.03313 13.9295C7.533 14.4986 8.37713 15.7728 8.673 16.7552C8.71343 17.0781 9.00465 17.2987 9.3345 17.2648C9.66086 17.2288 9.89625 16.9316 9.86363 16.6088L9.84077 16.4857C9.45415 15.1858 8.49077 13.7782 7.9384 13.1489C7.07625 12.1639 6.6 10.9038 6.6 9.59542C6.6 6.57568 8.96438 4.20197 11.9813 4.19453H12C13.4299 4.19453 14.7769 4.74726 15.795 5.75347C16.83 6.77417 17.4 8.13833 17.4 9.59542C17.4 10.9035 16.9249 12.1658 16.0624 13.1497C15.5092 13.7793 14.5459 15.1866 14.1593 16.4865L14.1358 16.6108C14.0965 16.936 14.321 17.2646 14.6484 17.3051C14.6777 17.3086 14.7059 17.3109 14.734 17.3109C15.0264 17.3109 15.2725 17.1206 15.31 16.8233C15.6229 15.7732 16.4672 14.499 16.9675 13.9299C18.0188 12.7289 18.6 11.19 18.6 9.59542C18.6 7.82201 17.9044 6.15751 16.6418 4.90821C15.3938 3.6734 13.71 2.95779 11.9813 3.00193ZM14.3663 18.4309H9.6C9.26828 18.4309 8.99963 18.6978 9 19.0267L9.0028 19.8571C9.00317 20.0902 9.07345 20.3203 9.20376 20.5143L9.84464 21.4692C10.0406 21.7612 10.4904 22 10.844 22H13.1585C13.5117 22 13.9614 21.761 14.1571 21.4696L14.798 20.5147C14.9087 20.3496 14.9987 20.0552 14.999 19.8575L14.998 19.0271C14.9663 18.732 14.73 18.4309 14.3663 18.4309ZM13.7963 19.8917L13.1921 20.8005C13.1743 20.8168 13.1289 20.8409 13.1596 20.842L10.8987 20.8464C10.8828 20.8426 10.8561 20.8361 10.8454 20.8361C10.8401 20.8361 10.8403 20.8276 10.8454 20.8361L10.2041 19.889L10.2038 19.6523H13.8015L13.8016 19.8448C13.7963 19.8619 13.7888 19.8917 13.7963 19.8917ZM12.6 5.97575C12.6 5.64716 12.3317 5.38102 12 5.38102C9.68438 5.38102 7.8 7.24847 7.8 9.51067C7.8 9.83941 8.06835 10.1054 8.4 10.1054C8.73165 10.1054 9 9.8393 9 9.51067C9 7.87145 10.3455 6.57048 12 6.57048C12.33 6.57011 12.6 6.30434 12.6 5.97575Z" fill="#D61A00"/>
</svg>
