<svg width="24" height="17" viewBox="0 0 24 17" fill="none" xmlns="http://www.w3.org/2000/svg">
<path id="Vector" d="M22.6625 1.83333C22.4042 1.83333 22.1417 1.90833 21.9042 2.07083L17.3333 4.98333V2.49167C17.3333 1.39167 16.3667 0.5 15.175 0.5H2.15833C0.966667 0.5 0 1.39167 0 2.49167V14.5083C0 15.6083 0.966667 16.5 2.15833 16.5H15.175C16.3667 16.5 17.3333 15.6083 17.3333 14.5083V12.0167L21.9 14.9292C22.1375 15.0958 22.4042 15.1667 22.6583 15.1667C23.35 15.1667 23.9958 14.625 23.9958 13.8542V3.14583C24 2.375 23.3542 1.83333 22.6625 1.83333ZM16 14.5083C16 14.8667 15.6208 15.1667 15.175 15.1667H2.15833C1.7125 15.1667 1.33333 14.8667 1.33333 14.5083V2.49167C1.33333 2.13333 1.7125 1.83333 2.15833 1.83333H15.175C15.6208 1.83333 16 2.13333 16 2.49167V14.5083ZM22.6667 13.8542L22.6167 13.8L17.3333 10.4333V6.5625L22.6667 3.16667V13.8542Z" fill="#602C0A"/>
</svg>
