<svg width="24" height="24" viewBox="0 0 24 24" fill="none" xmlns="http://www.w3.org/2000/svg">
<path d="M22.6625 5.33333C22.4042 5.33333 22.1417 5.40833 21.9042 5.57083L17.3333 8.48333V5.99167C17.3333 4.89167 16.3667 4 15.175 4H2.15833C0.966667 4 0 4.89167 0 5.99167V18.0083C0 19.1083 0.966667 20 2.15833 20H15.175C16.3667 20 17.3333 19.1083 17.3333 18.0083V15.5167L21.9 18.4292C22.1375 18.5958 22.4042 18.6667 22.6583 18.6667C23.35 18.6667 23.9958 18.125 23.9958 17.3542V6.64583C24 5.875 23.3542 5.33333 22.6625 5.33333ZM16 18.0083C16 18.3667 15.6208 18.6667 15.175 18.6667H2.15833C1.7125 18.6667 1.33333 18.3667 1.33333 18.0083V5.99167C1.33333 5.63333 1.7125 5.33333 2.15833 5.33333H15.175C15.6208 5.33333 16 5.63333 16 5.99167V18.0083ZM22.6667 17.3542L22.6167 17.3L17.3333 13.9333V10.0625L22.6667 6.66667V17.3542Z" fill="#D61A00"/>
</svg>
