<svg width="24" height="24" viewBox="0 0 24 24" fill="none" xmlns="http://www.w3.org/2000/svg">
<g clip-path="url(#clip0_2885_16545)">
<path d="M22.8138 22.8153C22.3783 23.2508 21.6739 23.2508 21.238 22.8153L11.9997 13.575L2.75942 22.8153C2.324 23.2508 1.61952 23.2508 1.18362 22.8153C0.748202 22.3799 0.748202 21.6754 1.18362 21.2395L10.426 12.0013L1.18501 2.761C0.749594 2.32559 0.749594 1.62111 1.18501 1.1852C1.62043 0.749789 2.3249 0.749789 2.76081 1.1852L11.9997 10.4276L21.24 1.18729C21.6755 0.751877 22.3799 0.751877 22.8158 1.18729C23.2513 1.62271 23.2513 2.32719 22.8158 2.76309L13.5734 12.0013L22.8138 21.2416C23.2524 21.6734 23.2524 22.3836 22.8138 22.8153Z" fill="black"/>
</g>
<defs>
<clipPath id="clip0_2885_16545">
<rect width="24" height="24" fill="white"/>
</clipPath>
</defs>
</svg>
